<?xml version="1.0" standalone="no"?>
<svg xmlns="http://www.w3.org/2000/svg" version="1.1" width="481" height="481" viewBox="0 0 481 481" role="img" aria-label="AI100 pop quiz museum QR">
	<!-- Created with https://api.qrserver.com (QR Code API, see goQR.me/api for information) -->
	<title>AI100 pop quiz museum QR</title>
	<desc>https://museum.bza.edu.cn/ai-history/?storyline=bench-council-ai100&amp;quiz=mobile</desc>
	<rect style="fill:rgb(255, 255, 255);fill-opacity:1" x="0" y="0" width="481" height="481" />
	<g id="elements">
		<path style="fill:rgb(0, 0, 0)" d="M 0,0 l 13,0 0,13 -13,0 z M 13,0 l 13,0 0,13 -13,0 z M 26,0 l 13,0 0,13 -13,0 z M 39,0 l 13,0 0,13 -13,0 z M 52,0 l 13,0 0,13 -13,0 z M 65,0 l 13,0 0,13 -13,0 z M 78,0 l 13,0 0,13 -13,0 z M 117,0 l 13,0 0,13 -13,0 z M 195,0 l 13,0 0,13 -13,0 z M 208,0 l 13,0 0,13 -13,0 z M 247,0 l 13,0 0,13 -13,0 z M 260,0 l 13,0 0,13 -13,0 z M 299,0 l 13,0 0,13 -13,0 z M 338,0 l 13,0 0,13 -13,0 z M 364,0 l 13,0 0,13 -13,0 z M 390,0 l 13,0 0,13 -13,0 z M 403,0 l 13,0 0,13 -13,0 z M 416,0 l 13,0 0,13 -13,0 z M 429,0 l 13,0 0,13 -13,0 z M 442,0 l 13,0 0,13 -13,0 z M 455,0 l 13,0 0,13 -13,0 z M 468,0 l 13,0 0,13 -13,0 z M 0,13 l 13,0 0,13 -13,0 z M 78,13 l 13,0 0,13 -13,0 z M 104,13 l 13,0 0,13 -13,0 z M 117,13 l 13,0 0,13 -13,0 z M 143,13 l 13,0 0,13 -13,0 z M 156,13 l 13,0 0,13 -13,0 z M 234,13 l 13,0 0,13 -13,0 z M 286,13 l 13,0 0,13 -13,0 z M 338,13 l 13,0 0,13 -13,0 z M 351,13 l 13,0 0,13 -13,0 z M 364,13 l 13,0 0,13 -13,0 z M 390,13 l 13,0 0,13 -13,0 z M 468,13 l 13,0 0,13 -13,0 z M 0,26 l 13,0 0,13 -13,0 z M 26,26 l 13,0 0,13 -13,0 z M 39,26 l 13,0 0,13 -13,0 z M 52,26 l 13,0 0,13 -13,0 z M 78,26 l 13,0 0,13 -13,0 z M 117,26 l 13,0 0,13 -13,0 z M 130,26 l 13,0 0,13 -13,0 z M 143,26 l 13,0 0,13 -13,0 z M 182,26 l 13,0 0,13 -13,0 z M 208,26 l 13,0 0,13 -13,0 z M 247,26 l 13,0 0,13 -13,0 z M 260,26 l 13,0 0,13 -13,0 z M 273,26 l 13,0 0,13 -13,0 z M 390,26 l 13,0 0,13 -13,0 z M 416,26 l 13,0 0,13 -13,0 z M 429,26 l 13,0 0,13 -13,0 z M 442,26 l 13,0 0,13 -13,0 z M 468,26 l 13,0 0,13 -13,0 z M 0,39 l 13,0 0,13 -13,0 z M 26,39 l 13,0 0,13 -13,0 z M 39,39 l 13,0 0,13 -13,0 z M 52,39 l 13,0 0,13 -13,0 z M 78,39 l 13,0 0,13 -13,0 z M 104,39 l 13,0 0,13 -13,0 z M 117,39 l 13,0 0,13 -13,0 z M 143,39 l 13,0 0,13 -13,0 z M 208,39 l 13,0 0,13 -13,0 z M 221,39 l 13,0 0,13 -13,0 z M 286,39 l 13,0 0,13 -13,0 z M 312,39 l 13,0 0,13 -13,0 z M 325,39 l 13,0 0,13 -13,0 z M 338,39 l 13,0 0,13 -13,0 z M 351,39 l 13,0 0,13 -13,0 z M 364,39 l 13,0 0,13 -13,0 z M 390,39 l 13,0 0,13 -13,0 z M 416,39 l 13,0 0,13 -13,0 z M 429,39 l 13,0 0,13 -13,0 z M 442,39 l 13,0 0,13 -13,0 z M 468,39 l 13,0 0,13 -13,0 z M 0,52 l 13,0 0,13 -13,0 z M 26,52 l 13,0 0,13 -13,0 z M 39,52 l 13,0 0,13 -13,0 z M 52,52 l 13,0 0,13 -13,0 z M 78,52 l 13,0 0,13 -13,0 z M 130,52 l 13,0 0,13 -13,0 z M 156,52 l 13,0 0,13 -13,0 z M 169,52 l 13,0 0,13 -13,0 z M 182,52 l 13,0 0,13 -13,0 z M 195,52 l 13,0 0,13 -13,0 z M 247,52 l 13,0 0,13 -13,0 z M 273,52 l 13,0 0,13 -13,0 z M 299,52 l 13,0 0,13 -13,0 z M 325,52 l 13,0 0,13 -13,0 z M 364,52 l 13,0 0,13 -13,0 z M 390,52 l 13,0 0,13 -13,0 z M 416,52 l 13,0 0,13 -13,0 z M 429,52 l 13,0 0,13 -13,0 z M 442,52 l 13,0 0,13 -13,0 z M 468,52 l 13,0 0,13 -13,0 z M 0,65 l 13,0 0,13 -13,0 z M 78,65 l 13,0 0,13 -13,0 z M 104,65 l 13,0 0,13 -13,0 z M 130,65 l 13,0 0,13 -13,0 z M 169,65 l 13,0 0,13 -13,0 z M 182,65 l 13,0 0,13 -13,0 z M 195,65 l 13,0 0,13 -13,0 z M 208,65 l 13,0 0,13 -13,0 z M 312,65 l 13,0 0,13 -13,0 z M 325,65 l 13,0 0,13 -13,0 z M 338,65 l 13,0 0,13 -13,0 z M 351,65 l 13,0 0,13 -13,0 z M 364,65 l 13,0 0,13 -13,0 z M 390,65 l 13,0 0,13 -13,0 z M 468,65 l 13,0 0,13 -13,0 z M 0,78 l 13,0 0,13 -13,0 z M 13,78 l 13,0 0,13 -13,0 z M 26,78 l 13,0 0,13 -13,0 z M 39,78 l 13,0 0,13 -13,0 z M 52,78 l 13,0 0,13 -13,0 z M 65,78 l 13,0 0,13 -13,0 z M 78,78 l 13,0 0,13 -13,0 z M 104,78 l 13,0 0,13 -13,0 z M 130,78 l 13,0 0,13 -13,0 z M 156,78 l 13,0 0,13 -13,0 z M 182,78 l 13,0 0,13 -13,0 z M 208,78 l 13,0 0,13 -13,0 z M 234,78 l 13,0 0,13 -13,0 z M 260,78 l 13,0 0,13 -13,0 z M 286,78 l 13,0 0,13 -13,0 z M 312,78 l 13,0 0,13 -13,0 z M 338,78 l 13,0 0,13 -13,0 z M 364,78 l 13,0 0,13 -13,0 z M 390,78 l 13,0 0,13 -13,0 z M 403,78 l 13,0 0,13 -13,0 z M 416,78 l 13,0 0,13 -13,0 z M 429,78 l 13,0 0,13 -13,0 z M 442,78 l 13,0 0,13 -13,0 z M 455,78 l 13,0 0,13 -13,0 z M 468,78 l 13,0 0,13 -13,0 z M 156,91 l 13,0 0,13 -13,0 z M 169,91 l 13,0 0,13 -13,0 z M 195,91 l 13,0 0,13 -13,0 z M 273,91 l 13,0 0,13 -13,0 z M 286,91 l 13,0 0,13 -13,0 z M 299,91 l 13,0 0,13 -13,0 z M 312,91 l 13,0 0,13 -13,0 z M 338,91 l 13,0 0,13 -13,0 z M 351,91 l 13,0 0,13 -13,0 z M 0,104 l 13,0 0,13 -13,0 z M 13,104 l 13,0 0,13 -13,0 z M 26,104 l 13,0 0,13 -13,0 z M 39,104 l 13,0 0,13 -13,0 z M 52,104 l 13,0 0,13 -13,0 z M 78,104 l 13,0 0,13 -13,0 z M 91,104 l 13,0 0,13 -13,0 z M 104,104 l 13,0 0,13 -13,0 z M 117,104 l 13,0 0,13 -13,0 z M 130,104 l 13,0 0,13 -13,0 z M 156,104 l 13,0 0,13 -13,0 z M 182,104 l 13,0 0,13 -13,0 z M 195,104 l 13,0 0,13 -13,0 z M 221,104 l 13,0 0,13 -13,0 z M 260,104 l 13,0 0,13 -13,0 z M 286,104 l 13,0 0,13 -13,0 z M 312,104 l 13,0 0,13 -13,0 z M 325,104 l 13,0 0,13 -13,0 z M 338,104 l 13,0 0,13 -13,0 z M 377,104 l 13,0 0,13 -13,0 z M 403,104 l 13,0 0,13 -13,0 z M 429,104 l 13,0 0,13 -13,0 z M 455,104 l 13,0 0,13 -13,0 z M 52,117 l 13,0 0,13 -13,0 z M 104,117 l 13,0 0,13 -13,0 z M 117,117 l 13,0 0,13 -13,0 z M 195,117 l 13,0 0,13 -13,0 z M 208,117 l 13,0 0,13 -13,0 z M 221,117 l 13,0 0,13 -13,0 z M 234,117 l 13,0 0,13 -13,0 z M 247,117 l 13,0 0,13 -13,0 z M 299,117 l 13,0 0,13 -13,0 z M 338,117 l 13,0 0,13 -13,0 z M 364,117 l 13,0 0,13 -13,0 z M 429,117 l 13,0 0,13 -13,0 z M 442,117 l 13,0 0,13 -13,0 z M 455,117 l 13,0 0,13 -13,0 z M 0,130 l 13,0 0,13 -13,0 z M 26,130 l 13,0 0,13 -13,0 z M 39,130 l 13,0 0,13 -13,0 z M 52,130 l 13,0 0,13 -13,0 z M 65,130 l 13,0 0,13 -13,0 z M 78,130 l 13,0 0,13 -13,0 z M 117,130 l 13,0 0,13 -13,0 z M 130,130 l 13,0 0,13 -13,0 z M 143,130 l 13,0 0,13 -13,0 z M 156,130 l 13,0 0,13 -13,0 z M 234,130 l 13,0 0,13 -13,0 z M 273,130 l 13,0 0,13 -13,0 z M 325,130 l 13,0 0,13 -13,0 z M 351,130 l 13,0 0,13 -13,0 z M 377,130 l 13,0 0,13 -13,0 z M 403,130 l 13,0 0,13 -13,0 z M 429,130 l 13,0 0,13 -13,0 z M 442,130 l 13,0 0,13 -13,0 z M 468,130 l 13,0 0,13 -13,0 z M 0,143 l 13,0 0,13 -13,0 z M 39,143 l 13,0 0,13 -13,0 z M 65,143 l 13,0 0,13 -13,0 z M 104,143 l 13,0 0,13 -13,0 z M 117,143 l 13,0 0,13 -13,0 z M 130,143 l 13,0 0,13 -13,0 z M 143,143 l 13,0 0,13 -13,0 z M 182,143 l 13,0 0,13 -13,0 z M 208,143 l 13,0 0,13 -13,0 z M 273,143 l 13,0 0,13 -13,0 z M 351,143 l 13,0 0,13 -13,0 z M 429,143 l 13,0 0,13 -13,0 z M 455,143 l 13,0 0,13 -13,0 z M 52,156 l 13,0 0,13 -13,0 z M 78,156 l 13,0 0,13 -13,0 z M 130,156 l 13,0 0,13 -13,0 z M 143,156 l 13,0 0,13 -13,0 z M 208,156 l 13,0 0,13 -13,0 z M 221,156 l 13,0 0,13 -13,0 z M 260,156 l 13,0 0,13 -13,0 z M 299,156 l 13,0 0,13 -13,0 z M 325,156 l 13,0 0,13 -13,0 z M 338,156 l 13,0 0,13 -13,0 z M 377,156 l 13,0 0,13 -13,0 z M 390,156 l 13,0 0,13 -13,0 z M 416,156 l 13,0 0,13 -13,0 z M 429,156 l 13,0 0,13 -13,0 z M 442,156 l 13,0 0,13 -13,0 z M 468,156 l 13,0 0,13 -13,0 z M 26,169 l 13,0 0,13 -13,0 z M 52,169 l 13,0 0,13 -13,0 z M 65,169 l 13,0 0,13 -13,0 z M 91,169 l 13,0 0,13 -13,0 z M 104,169 l 13,0 0,13 -13,0 z M 117,169 l 13,0 0,13 -13,0 z M 156,169 l 13,0 0,13 -13,0 z M 169,169 l 13,0 0,13 -13,0 z M 182,169 l 13,0 0,13 -13,0 z M 195,169 l 13,0 0,13 -13,0 z M 221,169 l 13,0 0,13 -13,0 z M 247,169 l 13,0 0,13 -13,0 z M 299,169 l 13,0 0,13 -13,0 z M 312,169 l 13,0 0,13 -13,0 z M 325,169 l 13,0 0,13 -13,0 z M 338,169 l 13,0 0,13 -13,0 z M 364,169 l 13,0 0,13 -13,0 z M 403,169 l 13,0 0,13 -13,0 z M 442,169 l 13,0 0,13 -13,0 z M 455,169 l 13,0 0,13 -13,0 z M 0,182 l 13,0 0,13 -13,0 z M 13,182 l 13,0 0,13 -13,0 z M 26,182 l 13,0 0,13 -13,0 z M 52,182 l 13,0 0,13 -13,0 z M 65,182 l 13,0 0,13 -13,0 z M 78,182 l 13,0 0,13 -13,0 z M 169,182 l 13,0 0,13 -13,0 z M 182,182 l 13,0 0,13 -13,0 z M 195,182 l 13,0 0,13 -13,0 z M 208,182 l 13,0 0,13 -13,0 z M 221,182 l 13,0 0,13 -13,0 z M 234,182 l 13,0 0,13 -13,0 z M 260,182 l 13,0 0,13 -13,0 z M 273,182 l 13,0 0,13 -13,0 z M 286,182 l 13,0 0,13 -13,0 z M 351,182 l 13,0 0,13 -13,0 z M 364,182 l 13,0 0,13 -13,0 z M 377,182 l 13,0 0,13 -13,0 z M 390,182 l 13,0 0,13 -13,0 z M 416,182 l 13,0 0,13 -13,0 z M 442,182 l 13,0 0,13 -13,0 z M 455,182 l 13,0 0,13 -13,0 z M 468,182 l 13,0 0,13 -13,0 z M 26,195 l 13,0 0,13 -13,0 z M 39,195 l 13,0 0,13 -13,0 z M 65,195 l 13,0 0,13 -13,0 z M 91,195 l 13,0 0,13 -13,0 z M 130,195 l 13,0 0,13 -13,0 z M 156,195 l 13,0 0,13 -13,0 z M 169,195 l 13,0 0,13 -13,0 z M 195,195 l 13,0 0,13 -13,0 z M 234,195 l 13,0 0,13 -13,0 z M 273,195 l 13,0 0,13 -13,0 z M 286,195 l 13,0 0,13 -13,0 z M 338,195 l 13,0 0,13 -13,0 z M 351,195 l 13,0 0,13 -13,0 z M 364,195 l 13,0 0,13 -13,0 z M 377,195 l 13,0 0,13 -13,0 z M 390,195 l 13,0 0,13 -13,0 z M 416,195 l 13,0 0,13 -13,0 z M 429,195 l 13,0 0,13 -13,0 z M 468,195 l 13,0 0,13 -13,0 z M 13,208 l 13,0 0,13 -13,0 z M 26,208 l 13,0 0,13 -13,0 z M 39,208 l 13,0 0,13 -13,0 z M 52,208 l 13,0 0,13 -13,0 z M 65,208 l 13,0 0,13 -13,0 z M 78,208 l 13,0 0,13 -13,0 z M 91,208 l 13,0 0,13 -13,0 z M 156,208 l 13,0 0,13 -13,0 z M 182,208 l 13,0 0,13 -13,0 z M 195,208 l 13,0 0,13 -13,0 z M 221,208 l 13,0 0,13 -13,0 z M 234,208 l 13,0 0,13 -13,0 z M 260,208 l 13,0 0,13 -13,0 z M 286,208 l 13,0 0,13 -13,0 z M 312,208 l 13,0 0,13 -13,0 z M 325,208 l 13,0 0,13 -13,0 z M 377,208 l 13,0 0,13 -13,0 z M 390,208 l 13,0 0,13 -13,0 z M 403,208 l 13,0 0,13 -13,0 z M 416,208 l 13,0 0,13 -13,0 z M 429,208 l 13,0 0,13 -13,0 z M 442,208 l 13,0 0,13 -13,0 z M 468,208 l 13,0 0,13 -13,0 z M 0,221 l 13,0 0,13 -13,0 z M 13,221 l 13,0 0,13 -13,0 z M 26,221 l 13,0 0,13 -13,0 z M 39,221 l 13,0 0,13 -13,0 z M 52,221 l 13,0 0,13 -13,0 z M 104,221 l 13,0 0,13 -13,0 z M 130,221 l 13,0 0,13 -13,0 z M 195,221 l 13,0 0,13 -13,0 z M 208,221 l 13,0 0,13 -13,0 z M 221,221 l 13,0 0,13 -13,0 z M 247,221 l 13,0 0,13 -13,0 z M 273,221 l 13,0 0,13 -13,0 z M 299,221 l 13,0 0,13 -13,0 z M 325,221 l 13,0 0,13 -13,0 z M 403,221 l 13,0 0,13 -13,0 z M 442,221 l 13,0 0,13 -13,0 z M 455,221 l 13,0 0,13 -13,0 z M 0,234 l 13,0 0,13 -13,0 z M 13,234 l 13,0 0,13 -13,0 z M 26,234 l 13,0 0,13 -13,0 z M 39,234 l 13,0 0,13 -13,0 z M 52,234 l 13,0 0,13 -13,0 z M 78,234 l 13,0 0,13 -13,0 z M 117,234 l 13,0 0,13 -13,0 z M 130,234 l 13,0 0,13 -13,0 z M 143,234 l 13,0 0,13 -13,0 z M 156,234 l 13,0 0,13 -13,0 z M 260,234 l 13,0 0,13 -13,0 z M 312,234 l 13,0 0,13 -13,0 z M 325,234 l 13,0 0,13 -13,0 z M 338,234 l 13,0 0,13 -13,0 z M 351,234 l 13,0 0,13 -13,0 z M 364,234 l 13,0 0,13 -13,0 z M 377,234 l 13,0 0,13 -13,0 z M 390,234 l 13,0 0,13 -13,0 z M 416,234 l 13,0 0,13 -13,0 z M 442,234 l 13,0 0,13 -13,0 z M 455,234 l 13,0 0,13 -13,0 z M 468,234 l 13,0 0,13 -13,0 z M 13,247 l 13,0 0,13 -13,0 z M 26,247 l 13,0 0,13 -13,0 z M 65,247 l 13,0 0,13 -13,0 z M 91,247 l 13,0 0,13 -13,0 z M 143,247 l 13,0 0,13 -13,0 z M 182,247 l 13,0 0,13 -13,0 z M 208,247 l 13,0 0,13 -13,0 z M 273,247 l 13,0 0,13 -13,0 z M 286,247 l 13,0 0,13 -13,0 z M 299,247 l 13,0 0,13 -13,0 z M 338,247 l 13,0 0,13 -13,0 z M 351,247 l 13,0 0,13 -13,0 z M 390,247 l 13,0 0,13 -13,0 z M 468,247 l 13,0 0,13 -13,0 z M 0,260 l 13,0 0,13 -13,0 z M 26,260 l 13,0 0,13 -13,0 z M 39,260 l 13,0 0,13 -13,0 z M 65,260 l 13,0 0,13 -13,0 z M 78,260 l 13,0 0,13 -13,0 z M 130,260 l 13,0 0,13 -13,0 z M 143,260 l 13,0 0,13 -13,0 z M 208,260 l 13,0 0,13 -13,0 z M 221,260 l 13,0 0,13 -13,0 z M 247,260 l 13,0 0,13 -13,0 z M 286,260 l 13,0 0,13 -13,0 z M 299,260 l 13,0 0,13 -13,0 z M 312,260 l 13,0 0,13 -13,0 z M 325,260 l 13,0 0,13 -13,0 z M 377,260 l 13,0 0,13 -13,0 z M 390,260 l 13,0 0,13 -13,0 z M 416,260 l 13,0 0,13 -13,0 z M 429,260 l 13,0 0,13 -13,0 z M 442,260 l 13,0 0,13 -13,0 z M 455,260 l 13,0 0,13 -13,0 z M 468,260 l 13,0 0,13 -13,0 z M 13,273 l 13,0 0,13 -13,0 z M 26,273 l 13,0 0,13 -13,0 z M 52,273 l 13,0 0,13 -13,0 z M 91,273 l 13,0 0,13 -13,0 z M 104,273 l 13,0 0,13 -13,0 z M 117,273 l 13,0 0,13 -13,0 z M 156,273 l 13,0 0,13 -13,0 z M 169,273 l 13,0 0,13 -13,0 z M 182,273 l 13,0 0,13 -13,0 z M 195,273 l 13,0 0,13 -13,0 z M 221,273 l 13,0 0,13 -13,0 z M 234,273 l 13,0 0,13 -13,0 z M 247,273 l 13,0 0,13 -13,0 z M 260,273 l 13,0 0,13 -13,0 z M 299,273 l 13,0 0,13 -13,0 z M 325,273 l 13,0 0,13 -13,0 z M 338,273 l 13,0 0,13 -13,0 z M 364,273 l 13,0 0,13 -13,0 z M 377,273 l 13,0 0,13 -13,0 z M 403,273 l 13,0 0,13 -13,0 z M 442,273 l 13,0 0,13 -13,0 z M 455,273 l 13,0 0,13 -13,0 z M 0,286 l 13,0 0,13 -13,0 z M 65,286 l 13,0 0,13 -13,0 z M 78,286 l 13,0 0,13 -13,0 z M 91,286 l 13,0 0,13 -13,0 z M 104,286 l 13,0 0,13 -13,0 z M 117,286 l 13,0 0,13 -13,0 z M 130,286 l 13,0 0,13 -13,0 z M 169,286 l 13,0 0,13 -13,0 z M 182,286 l 13,0 0,13 -13,0 z M 195,286 l 13,0 0,13 -13,0 z M 208,286 l 13,0 0,13 -13,0 z M 260,286 l 13,0 0,13 -13,0 z M 286,286 l 13,0 0,13 -13,0 z M 325,286 l 13,0 0,13 -13,0 z M 338,286 l 13,0 0,13 -13,0 z M 351,286 l 13,0 0,13 -13,0 z M 364,286 l 13,0 0,13 -13,0 z M 377,286 l 13,0 0,13 -13,0 z M 390,286 l 13,0 0,13 -13,0 z M 416,286 l 13,0 0,13 -13,0 z M 455,286 l 13,0 0,13 -13,0 z M 468,286 l 13,0 0,13 -13,0 z M 39,299 l 13,0 0,13 -13,0 z M 91,299 l 13,0 0,13 -13,0 z M 104,299 l 13,0 0,13 -13,0 z M 117,299 l 13,0 0,13 -13,0 z M 156,299 l 13,0 0,13 -13,0 z M 169,299 l 13,0 0,13 -13,0 z M 195,299 l 13,0 0,13 -13,0 z M 273,299 l 13,0 0,13 -13,0 z M 286,299 l 13,0 0,13 -13,0 z M 312,299 l 13,0 0,13 -13,0 z M 338,299 l 13,0 0,13 -13,0 z M 351,299 l 13,0 0,13 -13,0 z M 377,299 l 13,0 0,13 -13,0 z M 390,299 l 13,0 0,13 -13,0 z M 403,299 l 13,0 0,13 -13,0 z M 416,299 l 13,0 0,13 -13,0 z M 468,299 l 13,0 0,13 -13,0 z M 39,312 l 13,0 0,13 -13,0 z M 52,312 l 13,0 0,13 -13,0 z M 78,312 l 13,0 0,13 -13,0 z M 104,312 l 13,0 0,13 -13,0 z M 117,312 l 13,0 0,13 -13,0 z M 156,312 l 13,0 0,13 -13,0 z M 182,312 l 13,0 0,13 -13,0 z M 195,312 l 13,0 0,13 -13,0 z M 221,312 l 13,0 0,13 -13,0 z M 286,312 l 13,0 0,13 -13,0 z M 299,312 l 13,0 0,13 -13,0 z M 312,312 l 13,0 0,13 -13,0 z M 325,312 l 13,0 0,13 -13,0 z M 338,312 l 13,0 0,13 -13,0 z M 351,312 l 13,0 0,13 -13,0 z M 390,312 l 13,0 0,13 -13,0 z M 416,312 l 13,0 0,13 -13,0 z M 442,312 l 13,0 0,13 -13,0 z M 455,312 l 13,0 0,13 -13,0 z M 468,312 l 13,0 0,13 -13,0 z M 0,325 l 13,0 0,13 -13,0 z M 13,325 l 13,0 0,13 -13,0 z M 39,325 l 13,0 0,13 -13,0 z M 117,325 l 13,0 0,13 -13,0 z M 195,325 l 13,0 0,13 -13,0 z M 208,325 l 13,0 0,13 -13,0 z M 221,325 l 13,0 0,13 -13,0 z M 234,325 l 13,0 0,13 -13,0 z M 247,325 l 13,0 0,13 -13,0 z M 260,325 l 13,0 0,13 -13,0 z M 273,325 l 13,0 0,13 -13,0 z M 286,325 l 13,0 0,13 -13,0 z M 299,325 l 13,0 0,13 -13,0 z M 338,325 l 13,0 0,13 -13,0 z M 364,325 l 13,0 0,13 -13,0 z M 455,325 l 13,0 0,13 -13,0 z M 0,338 l 13,0 0,13 -13,0 z M 26,338 l 13,0 0,13 -13,0 z M 39,338 l 13,0 0,13 -13,0 z M 78,338 l 13,0 0,13 -13,0 z M 130,338 l 13,0 0,13 -13,0 z M 143,338 l 13,0 0,13 -13,0 z M 156,338 l 13,0 0,13 -13,0 z M 221,338 l 13,0 0,13 -13,0 z M 260,338 l 13,0 0,13 -13,0 z M 273,338 l 13,0 0,13 -13,0 z M 286,338 l 13,0 0,13 -13,0 z M 312,338 l 13,0 0,13 -13,0 z M 325,338 l 13,0 0,13 -13,0 z M 351,338 l 13,0 0,13 -13,0 z M 364,338 l 13,0 0,13 -13,0 z M 377,338 l 13,0 0,13 -13,0 z M 403,338 l 13,0 0,13 -13,0 z M 455,338 l 13,0 0,13 -13,0 z M 468,338 l 13,0 0,13 -13,0 z M 0,351 l 13,0 0,13 -13,0 z M 39,351 l 13,0 0,13 -13,0 z M 65,351 l 13,0 0,13 -13,0 z M 91,351 l 13,0 0,13 -13,0 z M 117,351 l 13,0 0,13 -13,0 z M 143,351 l 13,0 0,13 -13,0 z M 182,351 l 13,0 0,13 -13,0 z M 208,351 l 13,0 0,13 -13,0 z M 260,351 l 13,0 0,13 -13,0 z M 273,351 l 13,0 0,13 -13,0 z M 286,351 l 13,0 0,13 -13,0 z M 338,351 l 13,0 0,13 -13,0 z M 364,351 l 13,0 0,13 -13,0 z M 403,351 l 13,0 0,13 -13,0 z M 416,351 l 13,0 0,13 -13,0 z M 468,351 l 13,0 0,13 -13,0 z M 0,364 l 13,0 0,13 -13,0 z M 39,364 l 13,0 0,13 -13,0 z M 52,364 l 13,0 0,13 -13,0 z M 65,364 l 13,0 0,13 -13,0 z M 78,364 l 13,0 0,13 -13,0 z M 91,364 l 13,0 0,13 -13,0 z M 104,364 l 13,0 0,13 -13,0 z M 130,364 l 13,0 0,13 -13,0 z M 143,364 l 13,0 0,13 -13,0 z M 221,364 l 13,0 0,13 -13,0 z M 247,364 l 13,0 0,13 -13,0 z M 286,364 l 13,0 0,13 -13,0 z M 299,364 l 13,0 0,13 -13,0 z M 312,364 l 13,0 0,13 -13,0 z M 325,364 l 13,0 0,13 -13,0 z M 338,364 l 13,0 0,13 -13,0 z M 364,364 l 13,0 0,13 -13,0 z M 377,364 l 13,0 0,13 -13,0 z M 390,364 l 13,0 0,13 -13,0 z M 403,364 l 13,0 0,13 -13,0 z M 416,364 l 13,0 0,13 -13,0 z M 442,364 l 13,0 0,13 -13,0 z M 104,377 l 13,0 0,13 -13,0 z M 156,377 l 13,0 0,13 -13,0 z M 169,377 l 13,0 0,13 -13,0 z M 182,377 l 13,0 0,13 -13,0 z M 195,377 l 13,0 0,13 -13,0 z M 234,377 l 13,0 0,13 -13,0 z M 247,377 l 13,0 0,13 -13,0 z M 299,377 l 13,0 0,13 -13,0 z M 338,377 l 13,0 0,13 -13,0 z M 351,377 l 13,0 0,13 -13,0 z M 364,377 l 13,0 0,13 -13,0 z M 416,377 l 13,0 0,13 -13,0 z M 429,377 l 13,0 0,13 -13,0 z M 0,390 l 13,0 0,13 -13,0 z M 13,390 l 13,0 0,13 -13,0 z M 26,390 l 13,0 0,13 -13,0 z M 39,390 l 13,0 0,13 -13,0 z M 52,390 l 13,0 0,13 -13,0 z M 65,390 l 13,0 0,13 -13,0 z M 78,390 l 13,0 0,13 -13,0 z M 104,390 l 13,0 0,13 -13,0 z M 130,390 l 13,0 0,13 -13,0 z M 169,390 l 13,0 0,13 -13,0 z M 182,390 l 13,0 0,13 -13,0 z M 195,390 l 13,0 0,13 -13,0 z M 208,390 l 13,0 0,13 -13,0 z M 221,390 l 13,0 0,13 -13,0 z M 234,390 l 13,0 0,13 -13,0 z M 286,390 l 13,0 0,13 -13,0 z M 338,390 l 13,0 0,13 -13,0 z M 364,390 l 13,0 0,13 -13,0 z M 390,390 l 13,0 0,13 -13,0 z M 416,390 l 13,0 0,13 -13,0 z M 442,390 l 13,0 0,13 -13,0 z M 455,390 l 13,0 0,13 -13,0 z M 468,390 l 13,0 0,13 -13,0 z M 0,403 l 13,0 0,13 -13,0 z M 78,403 l 13,0 0,13 -13,0 z M 130,403 l 13,0 0,13 -13,0 z M 156,403 l 13,0 0,13 -13,0 z M 169,403 l 13,0 0,13 -13,0 z M 195,403 l 13,0 0,13 -13,0 z M 208,403 l 13,0 0,13 -13,0 z M 234,403 l 13,0 0,13 -13,0 z M 260,403 l 13,0 0,13 -13,0 z M 273,403 l 13,0 0,13 -13,0 z M 312,403 l 13,0 0,13 -13,0 z M 351,403 l 13,0 0,13 -13,0 z M 364,403 l 13,0 0,13 -13,0 z M 416,403 l 13,0 0,13 -13,0 z M 455,403 l 13,0 0,13 -13,0 z M 0,416 l 13,0 0,13 -13,0 z M 26,416 l 13,0 0,13 -13,0 z M 39,416 l 13,0 0,13 -13,0 z M 52,416 l 13,0 0,13 -13,0 z M 78,416 l 13,0 0,13 -13,0 z M 104,416 l 13,0 0,13 -13,0 z M 130,416 l 13,0 0,13 -13,0 z M 156,416 l 13,0 0,13 -13,0 z M 182,416 l 13,0 0,13 -13,0 z M 195,416 l 13,0 0,13 -13,0 z M 221,416 l 13,0 0,13 -13,0 z M 247,416 l 13,0 0,13 -13,0 z M 286,416 l 13,0 0,13 -13,0 z M 299,416 l 13,0 0,13 -13,0 z M 325,416 l 13,0 0,13 -13,0 z M 338,416 l 13,0 0,13 -13,0 z M 351,416 l 13,0 0,13 -13,0 z M 364,416 l 13,0 0,13 -13,0 z M 377,416 l 13,0 0,13 -13,0 z M 390,416 l 13,0 0,13 -13,0 z M 403,416 l 13,0 0,13 -13,0 z M 416,416 l 13,0 0,13 -13,0 z M 429,416 l 13,0 0,13 -13,0 z M 442,416 l 13,0 0,13 -13,0 z M 455,416 l 13,0 0,13 -13,0 z M 0,429 l 13,0 0,13 -13,0 z M 26,429 l 13,0 0,13 -13,0 z M 39,429 l 13,0 0,13 -13,0 z M 52,429 l 13,0 0,13 -13,0 z M 78,429 l 13,0 0,13 -13,0 z M 104,429 l 13,0 0,13 -13,0 z M 117,429 l 13,0 0,13 -13,0 z M 130,429 l 13,0 0,13 -13,0 z M 208,429 l 13,0 0,13 -13,0 z M 221,429 l 13,0 0,13 -13,0 z M 234,429 l 13,0 0,13 -13,0 z M 247,429 l 13,0 0,13 -13,0 z M 260,429 l 13,0 0,13 -13,0 z M 273,429 l 13,0 0,13 -13,0 z M 299,429 l 13,0 0,13 -13,0 z M 325,429 l 13,0 0,13 -13,0 z M 351,429 l 13,0 0,13 -13,0 z M 364,429 l 13,0 0,13 -13,0 z M 377,429 l 13,0 0,13 -13,0 z M 390,429 l 13,0 0,13 -13,0 z M 416,429 l 13,0 0,13 -13,0 z M 468,429 l 13,0 0,13 -13,0 z M 0,442 l 13,0 0,13 -13,0 z M 26,442 l 13,0 0,13 -13,0 z M 39,442 l 13,0 0,13 -13,0 z M 52,442 l 13,0 0,13 -13,0 z M 78,442 l 13,0 0,13 -13,0 z M 104,442 l 13,0 0,13 -13,0 z M 117,442 l 13,0 0,13 -13,0 z M 143,442 l 13,0 0,13 -13,0 z M 156,442 l 13,0 0,13 -13,0 z M 195,442 l 13,0 0,13 -13,0 z M 234,442 l 13,0 0,13 -13,0 z M 260,442 l 13,0 0,13 -13,0 z M 312,442 l 13,0 0,13 -13,0 z M 325,442 l 13,0 0,13 -13,0 z M 338,442 l 13,0 0,13 -13,0 z M 364,442 l 13,0 0,13 -13,0 z M 403,442 l 13,0 0,13 -13,0 z M 455,442 l 13,0 0,13 -13,0 z M 468,442 l 13,0 0,13 -13,0 z M 0,455 l 13,0 0,13 -13,0 z M 78,455 l 13,0 0,13 -13,0 z M 104,455 l 13,0 0,13 -13,0 z M 143,455 l 13,0 0,13 -13,0 z M 182,455 l 13,0 0,13 -13,0 z M 195,455 l 13,0 0,13 -13,0 z M 208,455 l 13,0 0,13 -13,0 z M 273,455 l 13,0 0,13 -13,0 z M 286,455 l 13,0 0,13 -13,0 z M 299,455 l 13,0 0,13 -13,0 z M 312,455 l 13,0 0,13 -13,0 z M 338,455 l 13,0 0,13 -13,0 z M 351,455 l 13,0 0,13 -13,0 z M 364,455 l 13,0 0,13 -13,0 z M 390,455 l 13,0 0,13 -13,0 z M 403,455 l 13,0 0,13 -13,0 z M 468,455 l 13,0 0,13 -13,0 z M 0,468 l 13,0 0,13 -13,0 z M 13,468 l 13,0 0,13 -13,0 z M 26,468 l 13,0 0,13 -13,0 z M 39,468 l 13,0 0,13 -13,0 z M 52,468 l 13,0 0,13 -13,0 z M 65,468 l 13,0 0,13 -13,0 z M 78,468 l 13,0 0,13 -13,0 z M 104,468 l 13,0 0,13 -13,0 z M 117,468 l 13,0 0,13 -13,0 z M 130,468 l 13,0 0,13 -13,0 z M 143,468 l 13,0 0,13 -13,0 z M 221,468 l 13,0 0,13 -13,0 z M 247,468 l 13,0 0,13 -13,0 z M 286,468 l 13,0 0,13 -13,0 z M 325,468 l 13,0 0,13 -13,0 z M 338,468 l 13,0 0,13 -13,0 z M 377,468 l 13,0 0,13 -13,0 z M 403,468 l 13,0 0,13 -13,0 z M 442,468 l 13,0 0,13 -13,0 z M 455,468 l 13,0 0,13 -13,0 z M 468,468 l 13,0 0,13 -13,0 z " />
	</g>
</svg>
