<svg xmlns="http://www.w3.org/2000/svg" viewBox="0 0 720 420" role="img" aria-label="Transformer self-attention explainer">
  <rect width="720" height="420" rx="24" fill="#0f172a"/>
  <text x="36" y="54" fill="#f59e0b" font-family="Arial, sans-serif" font-size="24" font-weight="700">tokens attend in parallel</text>
  <g transform="translate(78 104)">
    <rect width="92" height="48" rx="12" fill="#172554" stroke="#60a5fa" stroke-width="3"/><text x="46" y="31" text-anchor="middle" fill="#bfdbfe" font-family="Arial, sans-serif" font-size="16">query</text>
    <rect x="122" width="92" height="48" rx="12" fill="#172554" stroke="#60a5fa" stroke-width="3"/><text x="168" y="31" text-anchor="middle" fill="#bfdbfe" font-family="Arial, sans-serif" font-size="16">key</text>
    <rect x="244" width="92" height="48" rx="12" fill="#172554" stroke="#60a5fa" stroke-width="3"/><text x="290" y="31" text-anchor="middle" fill="#bfdbfe" font-family="Arial, sans-serif" font-size="16">value</text>
  </g>
  <g transform="translate(110 216)" fill="#111827" stroke="#64748b" stroke-width="3">
    <rect width="80" height="54" rx="12"/><rect x="106" width="80" height="54" rx="12"/><rect x="212" width="80" height="54" rx="12"/><rect x="318" width="80" height="54" rx="12"/><rect x="424" width="80" height="54" rx="12"/>
  </g>
  <g fill="#e2e8f0" font-family="Arial, sans-serif" font-size="15" text-anchor="middle">
    <text x="150" y="249">the</text><text x="256" y="249">model</text><text x="362" y="249">attends</text><text x="468" y="249">to</text><text x="574" y="249">tokens</text>
  </g>
  <g stroke-width="4" fill="none" opacity=".95">
    <path d="M362 216C300 154 216 154 150 216" stroke="#60a5fa"/>
    <path d="M362 216C390 156 458 156 574 216" stroke="#f97316"/>
    <path d="M362 216C360 172 378 172 468 216" stroke="#22c55e"/>
  </g>
  <rect x="468" y="88" width="160" height="78" rx="14" fill="#111827" stroke="#64748b" stroke-width="3"/>
  <text x="548" y="118" text-anchor="middle" fill="#f8fafc" font-family="Arial, sans-serif" font-size="16">softmax(QK^T)</text>
  <text x="548" y="144" text-anchor="middle" fill="#cbd5e1" font-family="Arial, sans-serif" font-size="14">weighted values</text>
</svg>
