<svg xmlns="http://www.w3.org/2000/svg" width="960" height="540" viewBox="0 0 960 540" role="img">
  <rect width="960" height="540" fill="#10131d"/>
  <rect x="36" y="36" width="888" height="468" rx="18" fill="#151a26" stroke="#2f3a55" stroke-width="3"/>
  <text x="64" y="78" fill="#f68900" font-family="Arial, sans-serif" font-size="28" font-weight="800">Sensor grid to neuron</text>
  <rect x="96" y="120" width="210" height="210" rx="12" fill="#111827" stroke="#94a3b8" stroke-width="4"/><rect x="116" y="140" width="26" height="26" rx="5" fill="#f59e0b"/><rect x="154" y="140" width="26" height="26" rx="5" fill="#1d4ed8"/><rect x="192" y="140" width="26" height="26" rx="5" fill="#f59e0b"/><rect x="230" y="140" width="26" height="26" rx="5" fill="#1d4ed8"/><rect x="268" y="140" width="26" height="26" rx="5" fill="#f59e0b"/><rect x="116" y="178" width="26" height="26" rx="5" fill="#1d4ed8"/><rect x="154" y="178" width="26" height="26" rx="5" fill="#f59e0b"/><rect x="192" y="178" width="26" height="26" rx="5" fill="#1d4ed8"/><rect x="230" y="178" width="26" height="26" rx="5" fill="#f59e0b"/><rect x="268" y="178" width="26" height="26" rx="5" fill="#1d4ed8"/><rect x="116" y="216" width="26" height="26" rx="5" fill="#f59e0b"/><rect x="154" y="216" width="26" height="26" rx="5" fill="#1d4ed8"/><rect x="192" y="216" width="26" height="26" rx="5" fill="#f59e0b"/><rect x="230" y="216" width="26" height="26" rx="5" fill="#1d4ed8"/><rect x="268" y="216" width="26" height="26" rx="5" fill="#f59e0b"/><rect x="116" y="254" width="26" height="26" rx="5" fill="#1d4ed8"/><rect x="154" y="254" width="26" height="26" rx="5" fill="#f59e0b"/><rect x="192" y="254" width="26" height="26" rx="5" fill="#1d4ed8"/><rect x="230" y="254" width="26" height="26" rx="5" fill="#f59e0b"/><rect x="268" y="254" width="26" height="26" rx="5" fill="#1d4ed8"/><rect x="116" y="292" width="26" height="26" rx="5" fill="#f59e0b"/><rect x="154" y="292" width="26" height="26" rx="5" fill="#1d4ed8"/><rect x="192" y="292" width="26" height="26" rx="5" fill="#f59e0b"/><rect x="230" y="292" width="26" height="26" rx="5" fill="#1d4ed8"/><rect x="268" y="292" width="26" height="26" rx="5" fill="#f59e0b"/><circle cx="600" cy="225" r="74" fill="#064e3b" stroke="#6ee7b7" stroke-width="5"/><text x="600" y="234" fill="#d1fae5" text-anchor="middle" font-family="Arial" font-size="28">threshold</text><path d="M306 225H526" stroke="#f8fafc" stroke-width="6"/>
  <text x="64" y="490" fill="#94a3b8" font-family="Arial, sans-serif" font-size="18">local redrawn explainer</text>
</svg>
