<svg xmlns="http://www.w3.org/2000/svg" width="1200" height="720" viewBox="0 0 1200 720" role="img" aria-labelledby="title desc">
  <title id="title">Population adaptation loop</title>
  <desc id="desc">种群适应循环</desc>
  <rect width="1200" height="720" fill="#101827"/>
  <rect x="54" y="54" width="1092" height="612" rx="28" fill="#0f172a" stroke="#334155" stroke-width="4"/>
  <text x="90" y="120" fill="#f59e0b" font-family="Arial, Helvetica, sans-serif" font-size="30" font-weight="800">Population adaptation loop</text>
  <text x="90" y="164" fill="#cbd5e1" font-family="Arial, Helvetica, sans-serif" font-size="23" font-weight="700">种群适应循环</text>
  <g transform="translate(180 170)"><rect width="420" height="42" rx="21" fill="#111827" stroke="#94a3b8" stroke-width="3"/><rect x="24" y="10" width="74" height="22" rx="11" fill="#34d399"/><rect x="144" y="10" width="66" height="22" rx="11" fill="#f59e0b"/><rect x="285" y="10" width="68" height="22" rx="11" fill="#60a5fa"/></g><g transform="translate(180 242)"><rect width="420" height="42" rx="21" fill="#111827" stroke="#94a3b8" stroke-width="3"/><rect x="40" y="10" width="74" height="22" rx="11" fill="#34d399"/><rect x="136" y="10" width="66" height="22" rx="11" fill="#f59e0b"/><rect x="297" y="10" width="68" height="22" rx="11" fill="#60a5fa"/></g><g transform="translate(180 314)"><rect width="420" height="42" rx="21" fill="#111827" stroke="#94a3b8" stroke-width="3"/><rect x="56" y="10" width="74" height="22" rx="11" fill="#34d399"/><rect x="128" y="10" width="66" height="22" rx="11" fill="#f59e0b"/><rect x="309" y="10" width="68" height="22" rx="11" fill="#60a5fa"/></g><g transform="translate(180 386)"><rect width="420" height="42" rx="21" fill="#111827" stroke="#94a3b8" stroke-width="3"/><rect x="72" y="10" width="74" height="22" rx="11" fill="#34d399"/><rect x="120" y="10" width="66" height="22" rx="11" fill="#f59e0b"/><rect x="321" y="10" width="68" height="22" rx="11" fill="#60a5fa"/></g><g transform="translate(180 458)"><rect width="420" height="42" rx="21" fill="#111827" stroke="#94a3b8" stroke-width="3"/><rect x="88" y="10" width="74" height="22" rx="11" fill="#34d399"/><rect x="112" y="10" width="66" height="22" rx="11" fill="#f59e0b"/><rect x="333" y="10" width="68" height="22" rx="11" fill="#60a5fa"/></g><circle cx="850" cy="350" r="145" fill="none" stroke="#f8fafc" stroke-width="12" stroke-dasharray="34 24"/>
  <text x="90" y="646" fill="#94a3b8" font-family="Arial, Helvetica, sans-serif" font-size="20" font-weight="700">Population · local redraw from source material</text>
</svg>
