<svg xmlns="http://www.w3.org/2000/svg" viewBox="0 0 720 420" role="img" aria-label="Neocognitron hierarchy explainer">
  <rect width="720" height="420" rx="24" fill="#0f172a"/>
  <text x="36" y="54" fill="#f59e0b" font-family="Arial, sans-serif" font-size="24" font-weight="700">feature layers build shift tolerance</text>
  <g transform="translate(60 112)">
    <rect width="116" height="176" rx="14" fill="#111827" stroke="#64748b" stroke-width="3"/>
    <path d="M34 132V54H82" stroke="#60a5fa" stroke-width="10" stroke-linecap="round" fill="none"/>
    <text x="58" y="216" text-anchor="middle" fill="#e2e8f0" font-family="Arial, sans-serif" font-size="14">input</text>
  </g>
  <g transform="translate(230 94)">
    <rect width="118" height="212" rx="14" fill="#172554" stroke="#60a5fa" stroke-width="3"/>
    <text x="59" y="42" text-anchor="middle" fill="#bfdbfe" font-family="Arial, sans-serif" font-size="16">S-cells</text>
    <circle cx="44" cy="92" r="16" fill="#60a5fa"/><circle cx="76" cy="132" r="16" fill="#60a5fa"/><circle cx="52" cy="172" r="16" fill="#60a5fa"/>
  </g>
  <g transform="translate(410 94)">
    <rect width="118" height="212" rx="14" fill="#14532d" stroke="#22c55e" stroke-width="3"/>
    <text x="59" y="42" text-anchor="middle" fill="#bbf7d0" font-family="Arial, sans-serif" font-size="16">C-cells</text>
    <rect x="35" y="82" width="48" height="34" rx="8" fill="#22c55e"/><rect x="28" y="134" width="62" height="44" rx="8" fill="#22c55e"/>
  </g>
  <rect x="596" y="150" width="78" height="100" rx="16" fill="#402c1b" stroke="#f97316" stroke-width="3"/>
  <text x="635" y="205" text-anchor="middle" fill="#fed7aa" font-family="Arial, sans-serif" font-size="15">class</text>
  <path d="M176 200H230M348 200H410M528 200H596" stroke="#f8fafc" stroke-width="5"/>
</svg>
