<svg xmlns="http://www.w3.org/2000/svg" viewBox="0 0 640 390"><rect width="640" height="390" fill="#111827"/><text x="34" y="46" fill="#f59e0b" font-size="24" font-family="Arial" font-weight="800">Associative memory grid</text><g transform="translate(72 86)"><rect x="0" y="0" width="28" height="28" rx="4" fill="#1f2937" stroke="#475569"/><rect x="34" y="0" width="28" height="28" rx="4" fill="#34d399" stroke="#475569"/><rect x="68" y="0" width="28" height="28" rx="4" fill="#34d399" stroke="#475569"/><rect x="102" y="0" width="28" height="28" rx="4" fill="#1f2937" stroke="#475569"/><rect x="136" y="0" width="28" height="28" rx="4" fill="#1f2937" stroke="#475569"/><rect x="170" y="0" width="28" height="28" rx="4" fill="#1f2937" stroke="#475569"/><rect x="0" y="34" width="28" height="28" rx="4" fill="#1f2937" stroke="#475569"/><rect x="34" y="34" width="28" height="28" rx="4" fill="#34d399" stroke="#475569"/><rect x="68" y="34" width="28" height="28" rx="4" fill="#34d399" stroke="#475569"/><rect x="102" y="34" width="28" height="28" rx="4" fill="#1f2937" stroke="#475569"/><rect x="136" y="34" width="28" height="28" rx="4" fill="#1f2937" stroke="#475569"/><rect x="170" y="34" width="28" height="28" rx="4" fill="#1f2937" stroke="#475569"/><rect x="0" y="68" width="28" height="28" rx="4" fill="#1f2937" stroke="#475569"/><rect x="34" y="68" width="28" height="28" rx="4" fill="#1f2937" stroke="#475569"/><rect x="68" y="68" width="28" height="28" rx="4" fill="#34d399" stroke="#475569"/><rect x="102" y="68" width="28" height="28" rx="4" fill="#1f2937" stroke="#475569"/><rect x="136" y="68" width="28" height="28" rx="4" fill="#1f2937" stroke="#475569"/><rect x="170" y="68" width="28" height="28" rx="4" fill="#1f2937" stroke="#475569"/><rect x="0" y="102" width="28" height="28" rx="4" fill="#1f2937" stroke="#475569"/><rect x="34" y="102" width="28" height="28" rx="4" fill="#1f2937" stroke="#475569"/><rect x="68" y="102" width="28" height="28" rx="4" fill="#1f2937" stroke="#475569"/><rect x="102" y="102" width="28" height="28" rx="4" fill="#34d399" stroke="#475569"/><rect x="136" y="102" width="28" height="28" rx="4" fill="#1f2937" stroke="#475569"/><rect x="170" y="102" width="28" height="28" rx="4" fill="#1f2937" stroke="#475569"/><rect x="0" y="136" width="28" height="28" rx="4" fill="#1f2937" stroke="#475569"/><rect x="34" y="136" width="28" height="28" rx="4" fill="#1f2937" stroke="#475569"/><rect x="68" y="136" width="28" height="28" rx="4" fill="#1f2937" stroke="#475569"/><rect x="102" y="136" width="28" height="28" rx="4" fill="#34d399" stroke="#475569"/><rect x="136" y="136" width="28" height="28" rx="4" fill="#34d399" stroke="#475569"/><rect x="170" y="136" width="28" height="28" rx="4" fill="#1f2937" stroke="#475569"/><rect x="0" y="170" width="28" height="28" rx="4" fill="#1f2937" stroke="#475569"/><rect x="34" y="170" width="28" height="28" rx="4" fill="#1f2937" stroke="#475569"/><rect x="68" y="170" width="28" height="28" rx="4" fill="#1f2937" stroke="#475569"/><rect x="102" y="170" width="28" height="28" rx="4" fill="#34d399" stroke="#475569"/><rect x="136" y="170" width="28" height="28" rx="4" fill="#34d399" stroke="#475569"/><rect x="170" y="170" width="28" height="28" rx="4" fill="#1f2937" stroke="#475569"/></g><g transform="translate(376 86)"><rect x="0" y="0" width="28" height="28" rx="4" fill="#1f2937" stroke="#475569"/><rect x="34" y="0" width="28" height="28" rx="4" fill="#60a5fa" stroke="#475569"/><rect x="68" y="0" width="28" height="28" rx="4" fill="#60a5fa" stroke="#475569"/><rect x="102" y="0" width="28" height="28" rx="4" fill="#1f2937" stroke="#475569"/><rect x="136" y="0" width="28" height="28" rx="4" fill="#1f2937" stroke="#475569"/><rect x="170" y="0" width="28" height="28" rx="4" fill="#1f2937" stroke="#475569"/><rect x="0" y="34" width="28" height="28" rx="4" fill="#1f2937" stroke="#475569"/><rect x="34" y="34" width="28" height="28" rx="4" fill="#60a5fa" stroke="#475569"/><rect x="68" y="34" width="28" height="28" rx="4" fill="#60a5fa" stroke="#475569"/><rect x="102" y="34" width="28" height="28" rx="4" fill="#1f2937" stroke="#475569"/><rect x="136" y="34" width="28" height="28" rx="4" fill="#60a5fa" stroke="#475569"/><rect x="170" y="34" width="28" height="28" rx="4" fill="#1f2937" stroke="#475569"/><rect x="0" y="68" width="28" height="28" rx="4" fill="#1f2937" stroke="#475569"/><rect x="34" y="68" width="28" height="28" rx="4" fill="#1f2937" stroke="#475569"/><rect x="68" y="68" width="28" height="28" rx="4" fill="#60a5fa" stroke="#475569"/><rect x="102" y="68" width="28" height="28" rx="4" fill="#1f2937" stroke="#475569"/><rect x="136" y="68" width="28" height="28" rx="4" fill="#60a5fa" stroke="#475569"/><rect x="170" y="68" width="28" height="28" rx="4" fill="#1f2937" stroke="#475569"/><rect x="0" y="102" width="28" height="28" rx="4" fill="#1f2937" stroke="#475569"/><rect x="34" y="102" width="28" height="28" rx="4" fill="#1f2937" stroke="#475569"/><rect x="68" y="102" width="28" height="28" rx="4" fill="#1f2937" stroke="#475569"/><rect x="102" y="102" width="28" height="28" rx="4" fill="#60a5fa" stroke="#475569"/><rect x="136" y="102" width="28" height="28" rx="4" fill="#1f2937" stroke="#475569"/><rect x="170" y="102" width="28" height="28" rx="4" fill="#1f2937" stroke="#475569"/><rect x="0" y="136" width="28" height="28" rx="4" fill="#1f2937" stroke="#475569"/><rect x="34" y="136" width="28" height="28" rx="4" fill="#1f2937" stroke="#475569"/><rect x="68" y="136" width="28" height="28" rx="4" fill="#1f2937" stroke="#475569"/><rect x="102" y="136" width="28" height="28" rx="4" fill="#60a5fa" stroke="#475569"/><rect x="136" y="136" width="28" height="28" rx="4" fill="#60a5fa" stroke="#475569"/><rect x="170" y="136" width="28" height="28" rx="4" fill="#1f2937" stroke="#475569"/><rect x="0" y="170" width="28" height="28" rx="4" fill="#1f2937" stroke="#475569"/><rect x="34" y="170" width="28" height="28" rx="4" fill="#1f2937" stroke="#475569"/><rect x="68" y="170" width="28" height="28" rx="4" fill="#1f2937" stroke="#475569"/><rect x="102" y="170" width="28" height="28" rx="4" fill="#60a5fa" stroke="#475569"/><rect x="136" y="170" width="28" height="28" rx="4" fill="#60a5fa" stroke="#475569"/><rect x="170" y="170" width="28" height="28" rx="4" fill="#1f2937" stroke="#475569"/></g><path d="M286 186 H350" stroke="#f8fafc" stroke-width="5"/><text x="88" y="320" fill="#e5e7eb" font-family="Arial" font-size="16">stored</text><text x="400" y="320" fill="#e5e7eb" font-family="Arial" font-size="16">recalled from noise</text></svg>