<svg xmlns="http://www.w3.org/2000/svg" viewBox="0 0 720 420" role="img" aria-label="LeNet zip code CNN">
  <rect width="720" height="420" fill="#111827"/>
  <text x="42" y="58" fill="#f59e0b" font-family="Arial" font-size="30" font-weight="700">LeNet handwriting recognition pipeline</text>
  <rect x="60" y="110" width="120" height="160" rx="12" fill="#0f172a" stroke="#94a3b8" stroke-width="4"/>
  <text x="120" y="210" fill="#e5e7eb" font-family="Arial" font-size="86" text-anchor="middle" font-weight="700">5</text>
  <g fill="#1d4ed8" stroke="#93c5fd" stroke-width="3">
    <rect x="250" y="98" width="54" height="54" rx="8"/><rect x="318" y="126" width="54" height="54" rx="8"/><rect x="386" y="154" width="54" height="54" rx="8"/>
  </g>
  <rect x="508" y="120" width="110" height="52" rx="12" fill="#402c1b" stroke="#f59e0b" stroke-width="3"/>
  <rect x="508" y="200" width="110" height="52" rx="12" fill="#064e3b" stroke="#6ee7b7" stroke-width="3"/>
  <text x="563" y="153" fill="#fde68a" font-family="Arial" font-size="22" text-anchor="middle">features</text>
  <text x="563" y="234" fill="#d1fae5" font-family="Arial" font-size="22" text-anchor="middle">digit</text>
  <path d="M180 190 H250 M440 178 C478 178 470 146 508 146 M440 178 C478 178 470 226 508 226" stroke="#e5e7eb" stroke-width="6" fill="none"/>
  <text x="90" y="344" fill="#94a3b8" font-family="Arial" font-size="22">Convolution and pooling turn a ZIP-code crop into a class prediction.</text>
</svg>
