<svg xmlns="http://www.w3.org/2000/svg" viewBox="0 0 720 420" role="img" aria-label="Kernel PCA eigenmap explainer">
  <rect width="720" height="420" rx="24" fill="#0f172a"/>
  <text x="36" y="54" fill="#f59e0b" font-family="Arial, sans-serif" font-size="24" font-weight="700">kernel matrix to nonlinear components</text>
  <g transform="translate(70 104)">
    <rect width="176" height="176" rx="12" fill="#111827" stroke="#64748b" stroke-width="3"/>
    <g fill="#60a5fa"><circle cx="44" cy="44" r="14"/><circle cx="88" cy="88" r="14"/><circle cx="132" cy="132" r="14"/></g>
    <g fill="#f97316"><circle cx="132" cy="44" r="14"/><circle cx="88" cy="132" r="14"/><circle cx="44" cy="132" r="14"/></g>
    <path d="M0 44H176M0 88H176M0 132H176M44 0V176M88 0V176M132 0V176" stroke="#334155" stroke-width="2"/>
    <text x="88" y="216" text-anchor="middle" fill="#e2e8f0" font-family="Arial, sans-serif" font-size="15">kernel similarities</text>
  </g>
  <path d="M286 192H388" stroke="#f8fafc" stroke-width="5"/>
  <g transform="translate(420 88)">
    <path d="M24 224H214M48 240V20" stroke="#475569" stroke-width="3"/>
    <path d="M76 188C100 88 158 84 190 44" fill="none" stroke="#60a5fa" stroke-width="7" stroke-linecap="round"/>
    <path d="M76 190C118 158 148 176 198 212" fill="none" stroke="#f97316" stroke-width="7" stroke-linecap="round"/>
    <text x="118" y="266" text-anchor="middle" fill="#e2e8f0" font-family="Arial, sans-serif" font-size="15">principal directions in feature space</text>
  </g>
</svg>
