<svg xmlns="http://www.w3.org/2000/svg" width="960" height="540" viewBox="0 0 960 540" role="img">
  <rect width="960" height="540" fill="#10131d"/>
  <rect x="36" y="36" width="888" height="468" rx="18" fill="#151a26" stroke="#2f3a55" stroke-width="3"/>
  <text x="64" y="78" fill="#f68900" font-family="Arial, sans-serif" font-size="28" font-weight="800">Hardware-assisted board evaluation</text>
  <rect x="110" y="110" width="260" height="260" fill="#111827" stroke="#94a3b8" stroke-width="4"/><path d="M142.5 110v260M110 142.5h260" stroke="#334155" stroke-width="2"/><path d="M175 110v260M110 175h260" stroke="#334155" stroke-width="2"/><path d="M207.5 110v260M110 207.5h260" stroke="#334155" stroke-width="2"/><path d="M240 110v260M110 240h260" stroke="#334155" stroke-width="2"/><path d="M272.5 110v260M110 272.5h260" stroke="#334155" stroke-width="2"/><path d="M305 110v260M110 305h260" stroke="#334155" stroke-width="2"/><path d="M337.5 110v260M110 337.5h260" stroke="#334155" stroke-width="2"/><rect x="185" y="176" width="82" height="82" fill="none" stroke="#f59e0b" stroke-width="8"/><rect x="520" y="120" width="250" height="210" rx="20" fill="#0f172a" stroke="#6ee7b7" stroke-width="4"/><text x="645" y="178" text-anchor="middle" fill="#d1fae5" font-family="Arial" font-size="26">VLSI evaluator</text><path d="M370 240h150" stroke="#f8fafc" stroke-width="6"/><text x="542" y="248" fill="#f8fafc" font-family="Arial" font-size="22">score board</text>
  <text x="64" y="490" fill="#94a3b8" font-family="Arial, sans-serif" font-size="18">local redrawn explainer</text>
</svg>
