<svg xmlns="http://www.w3.org/2000/svg" viewBox="0 0 720 420" role="img" aria-label="NMF parts-based factorization explainer">
  <rect width="720" height="420" rx="24" fill="#0f172a"/>
  <text x="36" y="54" fill="#f59e0b" font-family="Arial, sans-serif" font-size="24" font-weight="700">nonnegative parts add up</text>
  <g transform="translate(82 112)">
    <rect width="150" height="190" rx="14" fill="#111827" stroke="#64748b" stroke-width="3"/>
    <circle cx="75" cy="80" r="44" fill="#1e293b" stroke="#60a5fa" stroke-width="4"/>
    <circle cx="58" cy="72" r="6" fill="#e2e8f0"/><circle cx="92" cy="72" r="6" fill="#e2e8f0"/>
    <path d="M54 112Q75 130 96 112" stroke="#f8fafc" stroke-width="4" fill="none"/>
    <text x="75" y="164" text-anchor="middle" fill="#e2e8f0" font-family="Arial, sans-serif" font-size="15">data</text>
  </g>
  <text x="270" y="215" fill="#f8fafc" font-family="Arial, sans-serif" font-size="36">≈</text>
  <g transform="translate(334 110)" fill="#111827" stroke-width="3">
    <rect width="76" height="76" rx="12" stroke="#60a5fa"/><rect x="92" width="76" height="76" rx="12" stroke="#f97316"/><rect y="104" width="76" height="76" rx="12" stroke="#22c55e"/><rect x="92" y="104" width="76" height="76" rx="12" stroke="#a78bfa"/>
  </g>
  <g stroke="#e2e8f0" stroke-width="5" stroke-linecap="round">
    <path d="M360 148H386M452 148H496M360 252H396M452 252H486"/>
  </g>
  <text x="504" y="215" fill="#f8fafc" font-family="Arial, sans-serif" font-size="34">×</text>
  <g transform="translate(560 126)">
    <path d="M0 144H112M0 144V0" stroke="#475569" stroke-width="3"/>
    <rect x="16" y="52" width="18" height="92" fill="#60a5fa"/><rect x="46" y="86" width="18" height="58" fill="#f97316"/><rect x="76" y="28" width="18" height="116" fill="#22c55e"/>
    <text x="56" y="178" text-anchor="middle" fill="#e2e8f0" font-family="Arial, sans-serif" font-size="15">weights</text>
  </g>
</svg>
