<svg xmlns="http://www.w3.org/2000/svg" viewBox="0 0 720 420" role="img" aria-label="LLE neighborhood reconstruction explainer">
  <rect width="720" height="420" rx="24" fill="#0f172a"/>
  <text x="36" y="54" fill="#f59e0b" font-family="Arial, sans-serif" font-size="24" font-weight="700">preserve local reconstruction weights</text>
  <g transform="translate(84 92)">
    <circle cx="160" cy="128" r="74" fill="none" stroke="#64748b" stroke-width="3" stroke-dasharray="8 8"/>
    <circle cx="160" cy="128" r="16" fill="#f8fafc"/>
    <g fill="#60a5fa"><circle cx="94" cy="92" r="13"/><circle cx="126" cy="190" r="13"/><circle cx="226" cy="112" r="13"/><circle cx="210" cy="184" r="13"/></g>
    <path d="M160 128L94 92M160 128L126 190M160 128L226 112M160 128L210 184" stroke="#f97316" stroke-width="4"/>
    <text x="160" y="252" text-anchor="middle" fill="#e2e8f0" font-family="Arial, sans-serif" font-size="15">local weights</text>
  </g>
  <path d="M354 210H426" stroke="#f8fafc" stroke-width="5"/>
  <g transform="translate(468 104)">
    <path d="M10 188H190M26 204V18" stroke="#475569" stroke-width="3"/>
    <g fill="#60a5fa"><circle cx="60" cy="138" r="12"/><circle cx="92" cy="96" r="12"/><circle cx="132" cy="128" r="12"/><circle cx="154" cy="78" r="12"/></g>
    <circle cx="112" cy="112" r="15" fill="#f8fafc"/>
    <path d="M112 112L60 138M112 112L92 96M112 112L132 128M112 112L154 78" stroke="#f97316" stroke-width="4"/>
    <text x="100" y="236" text-anchor="middle" fill="#e2e8f0" font-family="Arial, sans-serif" font-size="15">same neighborhood relation</text>
  </g>
</svg>
