<svg xmlns="http://www.w3.org/2000/svg" viewBox="0 0 720 420" role="img" aria-label="HOG descriptor grid explainer">
  <rect width="720" height="420" rx="24" fill="#0f172a"/>
  <text x="36" y="54" fill="#f59e0b" font-family="Arial, sans-serif" font-size="24" font-weight="700">gradient cells to histogram</text>
  <g transform="translate(72 88)" stroke="#64748b" stroke-width="3">
    <rect width="250" height="250" rx="12" fill="#111827"/>
    <path d="M62 0V250M125 0V250M188 0V250M0 62H250M0 125H250M0 188H250"/>
  </g>
  <g stroke="#60a5fa" stroke-width="6" stroke-linecap="round">
    <path d="M102 128l36 24M178 102l-34 42M248 166h44M122 260l48-16M232 276l38 38"/>
  </g>
  <path d="M354 214H430" stroke="#f8fafc" stroke-width="5"/>
  <g transform="translate(460 116)">
    <path d="M0 190H190M0 190V0" stroke="#475569" stroke-width="3"/>
    <rect x="18" y="100" width="18" height="90" fill="#60a5fa"/><rect x="48" y="42" width="18" height="148" fill="#f97316"/><rect x="78" y="74" width="18" height="116" fill="#22c55e"/><rect x="108" y="128" width="18" height="62" fill="#a78bfa"/><rect x="138" y="64" width="18" height="126" fill="#facc15"/>
    <text x="96" y="224" text-anchor="middle" fill="#e2e8f0" font-family="Arial, sans-serif" font-size="15">orientation bins</text>
  </g>
</svg>
