<svg xmlns="http://www.w3.org/2000/svg" width="960" height="540" viewBox="0 0 960 540" role="img">
  <rect width="960" height="540" fill="#10131d"/>
  <rect x="36" y="36" width="888" height="468" rx="18" fill="#151a26" stroke="#2f3a55" stroke-width="3"/>
  <text x="64" y="78" fill="#f68900" font-family="Arial, sans-serif" font-size="28" font-weight="800">Stacked RBM pretraining</text>
  <circle cx="180" cy="130" r="19" fill="#60a5fa"/><circle cx="180" cy="185" r="19" fill="#60a5fa"/><circle cx="180" cy="240" r="19" fill="#60a5fa"/><circle cx="180" cy="295" r="19" fill="#60a5fa"/><circle cx="180" cy="350" r="19" fill="#60a5fa"/><circle cx="330" cy="130" r="19" fill="#22c55e"/><circle cx="330" cy="185" r="19" fill="#22c55e"/><circle cx="330" cy="240" r="19" fill="#22c55e"/><circle cx="330" cy="295" r="19" fill="#22c55e"/><circle cx="330" cy="350" r="19" fill="#22c55e"/><circle cx="480" cy="130" r="19" fill="#f59e0b"/><circle cx="480" cy="185" r="19" fill="#f59e0b"/><circle cx="480" cy="240" r="19" fill="#f59e0b"/><circle cx="480" cy="295" r="19" fill="#f59e0b"/><circle cx="480" cy="350" r="19" fill="#f59e0b"/><circle cx="630" cy="130" r="19" fill="#a78bfa"/><circle cx="630" cy="185" r="19" fill="#a78bfa"/><circle cx="630" cy="240" r="19" fill="#a78bfa"/><circle cx="630" cy="295" r="19" fill="#a78bfa"/><circle cx="630" cy="350" r="19" fill="#a78bfa"/> <path d="M180 130L330 130" stroke="#334155" stroke-width="2"/><path d="M180 130L330 185" stroke="#334155" stroke-width="2"/><path d="M180 130L330 240" stroke="#334155" stroke-width="2"/><path d="M180 130L330 295" stroke="#334155" stroke-width="2"/><path d="M180 130L330 350" stroke="#334155" stroke-width="2"/><path d="M180 185L330 130" stroke="#334155" stroke-width="2"/><path d="M180 185L330 185" stroke="#334155" stroke-width="2"/><path d="M180 185L330 240" stroke="#334155" stroke-width="2"/><path d="M180 185L330 295" stroke="#334155" stroke-width="2"/><path d="M180 185L330 350" stroke="#334155" stroke-width="2"/><path d="M180 240L330 130" stroke="#334155" stroke-width="2"/><path d="M180 240L330 185" stroke="#334155" stroke-width="2"/><path d="M180 240L330 240" stroke="#334155" stroke-width="2"/><path d="M180 240L330 295" stroke="#334155" stroke-width="2"/><path d="M180 240L330 350" stroke="#334155" stroke-width="2"/><path d="M180 295L330 130" stroke="#334155" stroke-width="2"/><path d="M180 295L330 185" stroke="#334155" stroke-width="2"/><path d="M180 295L330 240" stroke="#334155" stroke-width="2"/><path d="M180 295L330 295" stroke="#334155" stroke-width="2"/><path d="M180 295L330 350" stroke="#334155" stroke-width="2"/><path d="M180 350L330 130" stroke="#334155" stroke-width="2"/><path d="M180 350L330 185" stroke="#334155" stroke-width="2"/><path d="M180 350L330 240" stroke="#334155" stroke-width="2"/><path d="M180 350L330 295" stroke="#334155" stroke-width="2"/><path d="M180 350L330 350" stroke="#334155" stroke-width="2"/><path d="M330 130L480 130" stroke="#334155" stroke-width="2"/><path d="M330 130L480 185" stroke="#334155" stroke-width="2"/><path d="M330 130L480 240" stroke="#334155" stroke-width="2"/><path d="M330 130L480 295" stroke="#334155" stroke-width="2"/><path d="M330 130L480 350" stroke="#334155" stroke-width="2"/><path d="M330 185L480 130" stroke="#334155" stroke-width="2"/><path d="M330 185L480 185" stroke="#334155" stroke-width="2"/><path d="M330 185L480 240" stroke="#334155" stroke-width="2"/><path d="M330 185L480 295" stroke="#334155" stroke-width="2"/><path d="M330 185L480 350" stroke="#334155" stroke-width="2"/><path d="M330 240L480 130" stroke="#334155" stroke-width="2"/><path d="M330 240L480 185" stroke="#334155" stroke-width="2"/><path d="M330 240L480 240" stroke="#334155" stroke-width="2"/><path d="M330 240L480 295" stroke="#334155" stroke-width="2"/><path d="M330 240L480 350" stroke="#334155" stroke-width="2"/><path d="M330 295L480 130" stroke="#334155" stroke-width="2"/><path d="M330 295L480 185" stroke="#334155" stroke-width="2"/><path d="M330 295L480 240" stroke="#334155" stroke-width="2"/><path d="M330 295L480 295" stroke="#334155" stroke-width="2"/><path d="M330 295L480 350" stroke="#334155" stroke-width="2"/><path d="M330 350L480 130" stroke="#334155" stroke-width="2"/><path d="M330 350L480 185" stroke="#334155" stroke-width="2"/><path d="M330 350L480 240" stroke="#334155" stroke-width="2"/><path d="M330 350L480 295" stroke="#334155" stroke-width="2"/><path d="M330 350L480 350" stroke="#334155" stroke-width="2"/><path d="M480 130L630 130" stroke="#334155" stroke-width="2"/><path d="M480 130L630 185" stroke="#334155" stroke-width="2"/><path d="M480 130L630 240" stroke="#334155" stroke-width="2"/><path d="M480 130L630 295" stroke="#334155" stroke-width="2"/><path d="M480 130L630 350" stroke="#334155" stroke-width="2"/><path d="M480 185L630 130" stroke="#334155" stroke-width="2"/><path d="M480 185L630 185" stroke="#334155" stroke-width="2"/><path d="M480 185L630 240" stroke="#334155" stroke-width="2"/><path d="M480 185L630 295" stroke="#334155" stroke-width="2"/><path d="M480 185L630 350" stroke="#334155" stroke-width="2"/><path d="M480 240L630 130" stroke="#334155" stroke-width="2"/><path d="M480 240L630 185" stroke="#334155" stroke-width="2"/><path d="M480 240L630 240" stroke="#334155" stroke-width="2"/><path d="M480 240L630 295" stroke="#334155" stroke-width="2"/><path d="M480 240L630 350" stroke="#334155" stroke-width="2"/><path d="M480 295L630 130" stroke="#334155" stroke-width="2"/><path d="M480 295L630 185" stroke="#334155" stroke-width="2"/><path d="M480 295L630 240" stroke="#334155" stroke-width="2"/><path d="M480 295L630 295" stroke="#334155" stroke-width="2"/><path d="M480 295L630 350" stroke="#334155" stroke-width="2"/><path d="M480 350L630 130" stroke="#334155" stroke-width="2"/><path d="M480 350L630 185" stroke="#334155" stroke-width="2"/><path d="M480 350L630 240" stroke="#334155" stroke-width="2"/><path d="M480 350L630 295" stroke="#334155" stroke-width="2"/><path d="M480 350L630 350" stroke="#334155" stroke-width="2"/><text x="180" y="435" fill="#dbeafe" font-family="Arial" font-size="24">stack RBMs one layer at a time</text>
  <text x="64" y="490" fill="#94a3b8" font-family="Arial, sans-serif" font-size="18">local redrawn explainer</text>
</svg>
