<svg xmlns="http://www.w3.org/2000/svg" viewBox="0 0 720 420" role="img" aria-label="SURF interest points explainer">
  <rect width="720" height="420" rx="24" fill="#0f172a"/>
  <text x="36" y="54" fill="#f59e0b" font-family="Arial, sans-serif" font-size="24" font-weight="700">fast robust interest points</text>
  <rect x="72" y="92" width="260" height="236" rx="18" fill="#111827" stroke="#475569" stroke-width="3"/>
  <path d="M94 280C136 132 214 244 250 122C282 152 298 204 314 244" fill="none" stroke="#64748b" stroke-width="8" stroke-linecap="round"/>
  <g fill="none" stroke-width="5">
    <circle cx="154" cy="186" r="30" stroke="#60a5fa"/><circle cx="252" cy="142" r="24" stroke="#f97316"/><circle cx="284" cy="242" r="36" stroke="#22c55e"/>
  </g>
  <path d="M356 210H424" stroke="#f8fafc" stroke-width="5"/>
  <g transform="translate(454 96)">
    <rect width="190" height="232" rx="16" fill="#111827" stroke="#64748b" stroke-width="3"/>
    <text x="95" y="42" text-anchor="middle" fill="#bfdbfe" font-family="Arial, sans-serif" font-size="17">integral image</text>
    <path d="M42 82H148M42 118H148M42 154H148M42 190H148M66 62V210M108 62V210" stroke="#334155" stroke-width="3"/>
    <rect x="66" y="118" width="42" height="36" fill="#f97316" opacity=".78"/>
    <rect x="108" y="82" width="40" height="72" fill="#60a5fa" opacity=".65"/>
  </g>
</svg>
