<svg xmlns="http://www.w3.org/2000/svg" viewBox="0 0 640 390"><rect width="640" height="390" fill="#111827"/><text x="34" y="46" fill="#f59e0b" font-size="24" font-family="Arial" font-weight="800">ImageNet hierarchy</text><g font-family="Arial" font-size="16" fill="#e5e7eb"><circle cx="320" cy="84" r="34" fill="#1f2937" stroke="#f59e0b"/><text x="297" y="90">entity</text><circle cx="190" cy="178" r="38" fill="#172554" stroke="#93c5fd"/><text x="166" y="184">animal</text><circle cx="446" cy="178" r="38" fill="#064e3b" stroke="#6ee7b7"/><text x="424" y="184">object</text><rect x="120" y="270" width="96" height="46" rx="12" fill="#1f2937" stroke="#60a5fa"/><text x="148" y="298">dog</text><rect x="250" y="270" width="96" height="46" rx="12" fill="#1f2937" stroke="#60a5fa"/><text x="280" y="298">bird</text><rect x="400" y="270" width="96" height="46" rx="12" fill="#1f2937" stroke="#34d399"/><text x="424" y="298">chair</text></g><path d="M296 108 L214 150M344 108 L422 150M180 216 L168 270M206 216 L296 270M446 216 L448 270" stroke="#f8fafc" stroke-width="4" fill="none"/></svg>