<svg xmlns="http://www.w3.org/2000/svg" viewBox="0 0 640 390"><rect width="640" height="390" fill="#0f172a"/><text x="34" y="46" fill="#f59e0b" font-size="24" font-family="Arial" font-weight="800">Vector analogy</text><g stroke="#475569" stroke-width="2"><line x1="80" y1="100" x2="560" y2="100"/><line x1="110" y1="72" x2="110" y2="300"/><line x1="80" y1="145" x2="560" y2="145"/><line x1="210" y1="72" x2="210" y2="300"/><line x1="80" y1="190" x2="560" y2="190"/><line x1="310" y1="72" x2="310" y2="300"/><line x1="80" y1="235" x2="560" y2="235"/><line x1="410" y1="72" x2="410" y2="300"/><line x1="80" y1="280" x2="560" y2="280"/><line x1="510" y1="72" x2="510" y2="300"/></g><g font-family="Arial" font-size="16" fill="#e5e7eb"><circle cx="170" cy="238" r="10" fill="#60a5fa"/><text x="184" y="242">king</text><circle cx="250" cy="160" r="10" fill="#60a5fa"/><text x="264" y="164">queen</text><circle cx="370" cy="242" r="10" fill="#34d399"/><text x="384" y="246">man</text><circle cx="450" cy="164" r="10" fill="#34d399"/><text x="464" y="168">woman</text></g><path d="M170 238 L250 160M370 242 L450 164" stroke="#f59e0b" stroke-width="4" marker-end="url(#a)"/><defs><marker id="a" markerWidth="8" markerHeight="8" refX="6" refY="3" orient="auto"><path d="M0,0 L0,6 L6,3 z" fill="#f59e0b"/></marker></defs></svg>