<svg xmlns="http://www.w3.org/2000/svg" viewBox="0 0 640 390"><rect width="640" height="390" fill="#111827"/><text x="34" y="46" fill="#f59e0b" font-size="24" font-family="Arial" font-weight="800">Dropout random mask</text><g stroke="#e5e7eb" stroke-width="3"><line x1="135" y1="92" x2="320" y2="114"/><line x1="320" y1="114" x2="500" y2="98"/><line x1="135" y1="136" x2="320" y2="158"/><line x1="320" y1="158" x2="500" y2="140"/><line x1="135" y1="180" x2="320" y2="202"/><line x1="320" y1="202" x2="500" y2="182"/><line x1="135" y1="224" x2="320" y2="246"/><line x1="320" y1="246" x2="500" y2="224"/><line x1="135" y1="268" x2="320" y2="114"/><line x1="320" y1="114" x2="500" y2="266"/></g><g><circle cx="135" cy="92" r="18" fill="#60a5fa"/><circle cx="135" cy="136" r="18" fill="#60a5fa"/><circle cx="135" cy="180" r="18" fill="#60a5fa"/><circle cx="135" cy="224" r="18" fill="#60a5fa"/><circle cx="135" cy="268" r="18" fill="#60a5fa"/><circle cx="320" cy="92" r="20" fill="#34d399" opacity="1"/><circle cx="320" cy="136" r="20" fill="#374151" opacity="0.35"/><circle cx="320" cy="180" r="20" fill="#34d399" opacity="1"/><circle cx="320" cy="224" r="20" fill="#374151" opacity="0.35"/><circle cx="320" cy="268" r="20" fill="#34d399" opacity="1"/><circle cx="500" cy="92" r="18" fill="#f59e0b"/><circle cx="500" cy="136" r="18" fill="#f59e0b"/><circle cx="500" cy="180" r="18" fill="#f59e0b"/><circle cx="500" cy="224" r="18" fill="#f59e0b"/><circle cx="500" cy="268" r="18" fill="#f59e0b"/></g><text x="252" y="318" fill="#ef4444" font-family="Arial" font-size="18">masked units cannot co-adapt</text></svg>