<svg xmlns="http://www.w3.org/2000/svg" width="1200" height="720" viewBox="0 0 1200 720" role="img" aria-labelledby="title desc">
  <title id="title">Multi-branch Inception module</title>
  <desc id="desc">多分支 Inception 模块</desc>
  <rect width="1200" height="720" fill="#101827"/>
  <rect x="54" y="54" width="1092" height="612" rx="28" fill="#0f172a" stroke="#334155" stroke-width="4"/>
  <text x="90" y="120" fill="#f59e0b" font-family="Arial, Helvetica, sans-serif" font-size="30" font-weight="800">Multi-branch Inception module</text>
  <text x="90" y="164" fill="#cbd5e1" font-family="Arial, Helvetica, sans-serif" font-size="23" font-weight="700">多分支 Inception 模块</text>
  <rect x="130" y="310" width="170" height="86" rx="18" fill="#0f172a" stroke="#94a3b8" stroke-width="5"/><rect x="450" y="160" width="150" height="72" rx="16" fill="#0f766e"/><rect x="450" y="280" width="150" height="72" rx="16" fill="#1d4ed8"/><rect x="450" y="400" width="150" height="72" rx="16" fill="#7c2d12"/><rect x="820" y="275" width="210" height="160" rx="20" fill="#402c1b"/><path d="M300 353 C380 195 395 195 450 196 M300 353 H450 M300 353 C385 438 400 438 450 438 M600 196 C720 205 765 290 820 300 M600 316 H820 M600 438 C720 430 765 405 820 395" stroke="#f8fafc" stroke-width="8" fill="none"/>
  <text x="90" y="646" fill="#94a3b8" font-family="Arial, Helvetica, sans-serif" font-size="20" font-weight="700">Branches · local redraw from source material</text>
</svg>
