<svg xmlns="http://www.w3.org/2000/svg" viewBox="0 0 640 390"><rect width="640" height="390" fill="#101214"/><text x="34" y="46" fill="#f59e0b" font-size="24" font-family="Arial" font-weight="800">YOLO grid detector</text><rect x="72" y="76" width="300" height="240" rx="12" fill="#111827" stroke="#64748b"/><g stroke="#334155" stroke-width="2"><line x1="132" y1="76" x2="132" y2="316"/><line x1="72" y1="124" x2="372" y2="124"/><line x1="192" y1="76" x2="192" y2="316"/><line x1="72" y1="172" x2="372" y2="172"/><line x1="252" y1="76" x2="252" y2="316"/><line x1="72" y1="220" x2="372" y2="220"/><line x1="312" y1="76" x2="312" y2="316"/><line x1="72" y1="268" x2="372" y2="268"/></g><rect x="168" y="128" width="92" height="70" fill="none" stroke="#34d399" stroke-width="5"/><rect x="244" y="204" width="72" height="54" fill="none" stroke="#f59e0b" stroke-width="5"/><rect x="430" y="116" width="118" height="74" rx="14" fill="#172554" stroke="#93c5fd"/><text x="455" y="148" fill="#bfdbfe" font-family="Arial" font-size="15">boxes</text><text x="455" y="170" fill="#bfdbfe" font-family="Arial" font-size="15">classes</text><path d="M372 196 H430" stroke="#f8fafc" stroke-width="5"/></svg>