<svg xmlns="http://www.w3.org/2000/svg" viewBox="0 0 640 360" role="img" aria-labelledby="title desc">
  <title id="title">CLIP contrastive image-text pairs</title>
  <desc id="desc">Matching image and text embeddings are pulled together while mismatches are pushed apart.</desc>
  <rect width="640" height="360" rx="24" fill="#0f172a"/>
  <text x="40" y="54" fill="#f59e0b" font-family="Arial" font-size="28" font-weight="700">image-text contrastive learning</text>
  <rect x="72" y="104" width="142" height="92" rx="16" fill="#1e3a8a" stroke="#93c5fd" stroke-width="4"/>
  <circle cx="122" cy="140" r="18" fill="#f59e0b"/><path d="M92 182l38-34 26 22 24-30 28 42z" fill="#22c55e"/>
  <rect x="72" y="236" width="142" height="52" rx="12" fill="#111827" stroke="#64748b"/><text x="143" y="268" fill="#e5e7eb" text-anchor="middle" font-family="Arial" font-size="17">a mountain</text>
  <rect x="422" y="104" width="142" height="92" rx="16" fill="#1e3a8a" stroke="#93c5fd" stroke-width="4"/>
  <circle cx="492" cy="150" r="30" fill="#a78bfa"/>
  <rect x="422" y="236" width="142" height="52" rx="12" fill="#111827" stroke="#64748b"/><text x="493" y="268" fill="#e5e7eb" text-anchor="middle" font-family="Arial" font-size="17">a purple ball</text>
  <path d="M214 150C270 104 370 104 422 150M214 262C280 308 356 308 422 262" stroke="#86efac" stroke-width="6" fill="none"/>
  <path d="M214 150L422 262M214 262L422 150" stroke="#ef4444" stroke-width="3" stroke-dasharray="8 8"/>
</svg>
