<svg xmlns="http://www.w3.org/2000/svg" viewBox="0 0 640 360" role="img" aria-labelledby="title desc">
  <title id="title">Stable Diffusion latent denoising</title>
  <desc id="desc">Text guidance steers iterative denoising from latent noise to image.</desc>
  <rect width="640" height="360" rx="24" fill="#0f172a"/>
  <text x="40" y="54" fill="#f59e0b" font-family="Arial" font-size="28" font-weight="700">text-guided latent denoising</text>
  <rect x="56" y="118" width="118" height="118" rx="16" fill="#1e293b" stroke="#64748b" stroke-width="4"/>
  <g fill="#94a3b8"><circle cx="86" cy="146" r="5"/><circle cx="132" cy="166" r="6"/><circle cx="104" cy="208" r="5"/><circle cx="150" cy="220" r="4"/><circle cx="150" cy="132" r="5"/></g>
  <rect x="262" y="118" width="118" height="118" rx="16" fill="#1e3a8a" stroke="#93c5fd" stroke-width="4"/>
  <path d="M286 210l28-36 26 20 18-42" stroke="#86efac" stroke-width="8" fill="none"/>
  <rect x="468" y="118" width="118" height="118" rx="16" fill="#14532d" stroke="#86efac" stroke-width="4"/>
  <path d="M492 212h70l-18-44-18 24-14-18z" fill="#22c55e"/><circle cx="520" cy="150" r="14" fill="#f59e0b"/>
  <path d="M174 177H262M380 177H468" stroke="#f8fafc" stroke-width="5"/>
  <rect x="232" y="272" width="176" height="48" rx="12" fill="#111827" stroke="#f59e0b"/>
  <text x="320" y="302" fill="#fde68a" text-anchor="middle" font-family="Arial" font-size="17">prompt guidance</text>
</svg>
