<svg xmlns="http://www.w3.org/2000/svg" width="960" height="420" viewBox="0 80 960 420" preserveAspectRatio="xMidYMid meet" role="img" aria-labelledby="title desc">
  <title id="title">R.U.R. labor-revolt explainer</title>
  <desc id="desc">A factory line turns artificial workers into a social force, linking robot fiction to labor anxiety.</desc>
  <defs>
    <linearGradient id="factoryGlow" x1="0" y1="0" x2="1" y2="1">
      <stop offset="0" stop-color="#f6d365"/>
      <stop offset="1" stop-color="#f97316"/>
    </linearGradient>
    <linearGradient id="stageShade" x1="0" y1="0" x2="0" y2="1">
      <stop offset="0" stop-color="#111827"/>
      <stop offset="1" stop-color="#27272a"/>
    </linearGradient>
  </defs>
  <rect width="960" height="600" rx="0" fill="#f8fafc"/>
  <rect x="70" y="70" width="820" height="460" rx="28" fill="url(#stageShade)"/>
  <path d="M120 410h720v62H120z" fill="#3f3f46"/>
  <path d="M155 194h148v216H155zM361 158h140v252H361zM561 204h138v206H561z" fill="#52525b"/>
  <path d="M174 220h34v44h-34zM231 220h34v44h-34zM383 190h34v44h-34zM438 190h34v44h-34zM581 230h34v44h-34zM637 230h34v44h-34z" fill="#fef3c7"/>
  <path d="M118 410c118-46 194-46 292 0s186 46 318 0h112v20H118z" fill="url(#factoryGlow)" opacity=".78"/>
  <g fill="#e5e7eb" stroke="#111827" stroke-width="8" stroke-linejoin="round">
    <circle cx="278" cy="340" r="34"/>
    <path d="M235 405c7-46 78-46 86 0z"/>
    <path d="M248 341h60v56h-60z"/>
    <path d="M250 314h56v34h-56z"/>
    <path d="M258 328h8M292 328h8"/>
  </g>
  <g fill="#d1d5db" stroke="#111827" stroke-width="8" stroke-linejoin="round">
    <circle cx="452" cy="310" r="38"/>
    <path d="M405 400c9-58 88-58 96 0z"/>
    <path d="M421 313h63v70h-63z"/>
    <path d="M421 280h63v40h-63z"/>
    <path d="M431 297h9M466 297h9"/>
  </g>
  <g fill="#f3f4f6" stroke="#111827" stroke-width="8" stroke-linejoin="round">
    <circle cx="626" cy="340" r="34"/>
    <path d="M583 405c8-46 78-46 86 0z"/>
    <path d="M596 341h60v56h-60z"/>
    <path d="M596 314h60v34h-60z"/>
    <path d="M607 328h8M641 328h8"/>
  </g>
  <path d="M632 270c48-34 96-44 142-28" fill="none" stroke="#fb7185" stroke-width="12" stroke-linecap="round"/>
  <path d="M758 220l40 18-35 27" fill="none" stroke="#fb7185" stroke-width="12" stroke-linecap="round" stroke-linejoin="round"/>
  <text x="120" y="126" fill="#f8fafc" font-family="Inter, Arial, sans-serif" font-size="40" font-weight="800">R.U.R.</text>
  <text x="120" y="162" fill="#fed7aa" font-family="Inter, Arial, sans-serif" font-size="22" font-weight="700">robot as labor anxiety</text>
  <text x="668" y="475" fill="#fef3c7" font-family="Inter, Arial, sans-serif" font-size="22" font-weight="700">fiction becomes a warning</text>
</svg>
