<svg xmlns="http://www.w3.org/2000/svg" width="960" height="420" viewBox="0 80 960 420" preserveAspectRatio="xMidYMid meet" role="img" aria-labelledby="title desc">
  <title id="title">Lighthill Report AI winter explainer</title>
  <desc id="desc">A policy report filters overgrown expectations into a colder funding climate.</desc>
  <defs>
    <linearGradient id="winter" x1="0" y1="0" x2="1" y2="1">
      <stop offset="0" stop-color="#dbeafe"/>
      <stop offset="1" stop-color="#64748b"/>
    </linearGradient>
    <linearGradient id="hot" x1="0" y1="0" x2="1" y2="0">
      <stop offset="0" stop-color="#fbbf24"/>
      <stop offset="1" stop-color="#fb7185"/>
    </linearGradient>
  </defs>
  <rect width="960" height="600" fill="#e2e8f0"/>
  <rect x="78" y="72" width="804" height="456" rx="28" fill="#f8fafc"/>
  <path d="M130 194h226" stroke="url(#hot)" stroke-width="22" stroke-linecap="round"/>
  <path d="M130 258h286" stroke="url(#hot)" stroke-width="22" stroke-linecap="round"/>
  <path d="M130 322h204" stroke="url(#hot)" stroke-width="22" stroke-linecap="round"/>
  <path d="M412 140h190l54 54v252H412z" fill="#ffffff" stroke="#0f172a" stroke-width="8" stroke-linejoin="round"/>
  <path d="M602 140v58h54" fill="none" stroke="#0f172a" stroke-width="8" stroke-linejoin="round"/>
  <path d="M454 236h154M454 286h154M454 336h112" stroke="#64748b" stroke-width="12" stroke-linecap="round"/>
  <text x="446" y="202" fill="#0f172a" font-family="Inter, Arial, sans-serif" font-size="30" font-weight="900">Report</text>
  <path d="M658 258c52-4 88 2 134 30" fill="none" stroke="#2563eb" stroke-width="15" stroke-linecap="round"/>
  <path d="M780 260l44 46-60 5" fill="none" stroke="#2563eb" stroke-width="15" stroke-linecap="round" stroke-linejoin="round"/>
  <g stroke="#2563eb" stroke-width="8" stroke-linecap="round">
    <path d="M768 368v76M730 390l76 44M806 390l-76 44"/>
    <path d="M814 332v58M785 350l58 34M843 350l-58 34"/>
  </g>
  <text x="120" y="126" fill="#0f172a" font-family="Inter, Arial, sans-serif" font-size="40" font-weight="900">1973</text>
  <text x="120" y="164" fill="#475569" font-family="Inter, Arial, sans-serif" font-size="22" font-weight="700">promise meets a policy reality check</text>
  <rect x="686" y="430" width="160" height="50" rx="25" fill="url(#winter)"/>
  <text x="719" y="463" fill="#f8fafc" font-family="Inter, Arial, sans-serif" font-size="20" font-weight="900">AI winter</text>
</svg>
