<svg xmlns="http://www.w3.org/2000/svg" width="960" height="640" viewBox="0 0 960 640" role="img" aria-labelledby="title desc">
  <title id="title">Christopher Strachey profile card</title>
  <desc id="desc">A local profile card for Christopher Strachey and early draughts programming.</desc>
  <rect width="960" height="640" fill="#0f172a"/>
  <path d="M0 420C150 360 260 446 380 404s170-158 318-126 170 160 262 108v254H0Z" fill="#312e81"/>
  <rect x="52" y="58" width="856" height="524" rx="18" fill="#f1f5f9"/>
  <rect x="94" y="104" width="280" height="392" rx="0" fill="#111827"/>
  <rect x="124" y="134" width="220" height="220" fill="#e2e8f0"/>
  <path d="M154 202h160M154 246h160M154 290h160" stroke="#475569" stroke-width="10"/>
  <circle cx="234" cy="214" r="58" fill="#f8fafc"/>
  <path d="M172 350c8-52 40-84 62-84 24 0 57 32 64 84" fill="#c4b5fd"/>
  <rect x="124" y="396" width="220" height="54" fill="#c4b5fd"/>
  <text x="414" y="156" fill="#111827" font-family="Arial, Helvetica, sans-serif" font-size="48" font-weight="800">Christopher Strachey</text>
  <text x="414" y="214" fill="#6d28d9" font-family="Arial, Helvetica, sans-serif" font-size="28" font-weight="700">Draughts program, 1951-1952</text>
  <text x="414" y="292" fill="#334155" font-family="Arial, Helvetica, sans-serif" font-size="25">Early non-numerical computing</text>
  <text x="414" y="338" fill="#334155" font-family="Arial, Helvetica, sans-serif" font-size="25">Board search under tiny memory limits</text>
  <g fill="#ede9fe">
    <rect x="414" y="414" width="98" height="70" rx="14"/>
    <rect x="532" y="414" width="98" height="70" rx="14"/>
    <rect x="650" y="414" width="98" height="70" rx="14"/>
  </g>
  <text x="438" y="459" fill="#4c1d95" font-family="Arial, Helvetica, sans-serif" font-size="22" font-weight="800">ACE</text>
  <text x="548" y="459" fill="#4c1d95" font-family="Arial, Helvetica, sans-serif" font-size="22" font-weight="800">MOVE</text>
  <text x="672" y="459" fill="#4c1d95" font-family="Arial, Helvetica, sans-serif" font-size="22" font-weight="800">SCORE</text>
  <text x="94" y="552" fill="#64748b" font-family="Arial, Helvetica, sans-serif" font-size="20">Local profile card, not a source photograph</text>
</svg>
