<svg xmlns="http://www.w3.org/2000/svg" width="960" height="640" viewBox="0 0 960 640" role="img" aria-labelledby="title desc">
  <title id="title">John McDermott profile card</title>
  <desc id="desc">A local profile card for John McDermott and the XCON/R1 expert system.</desc>
  <rect width="960" height="640" fill="#0f172a"/>
  <rect x="44" y="44" width="872" height="552" rx="26" fill="#fff7ed"/>
  <rect x="88" y="104" width="300" height="396" rx="20" fill="#7c2d12"/>
  <circle cx="238" cy="240" r="80" fill="#fed7aa"/>
  <path d="M160 456c11-86 60-134 78-134s67 48 78 134" fill="#fdba74"/>
  <path d="M172 212c20-52 56-78 96-64 38 14 53 52 45 94-41-22-90-30-141-30Z" fill="#ea580c"/>
  <rect x="128" y="398" width="220" height="48" rx="12" fill="#ffedd5"/>
  <text x="154" y="430" fill="#9a3412" font-family="Arial, Helvetica, sans-serif" font-size="20" font-weight="800">IF order THEN config</text>
  <text x="430" y="156" fill="#111827" font-family="Arial, Helvetica, sans-serif" font-size="52" font-weight="800">John McDermott</text>
  <text x="430" y="214" fill="#c2410c" font-family="Arial, Helvetica, sans-serif" font-size="28" font-weight="700">R1 / XCON expert system</text>
  <text x="430" y="292" fill="#334155" font-family="Arial, Helvetica, sans-serif" font-size="25">Knowledge engineering pioneer</text>
  <text x="430" y="338" fill="#334155" font-family="Arial, Helvetica, sans-serif" font-size="25">Production rules for VAX configuration</text>
  <g font-family="Arial, Helvetica, sans-serif" font-size="22" font-weight="800">
    <rect x="430" y="408" width="116" height="64" rx="14" fill="#fed7aa"/>
    <rect x="590" y="408" width="116" height="64" rx="14" fill="#fdba74"/>
    <rect x="750" y="408" width="88" height="64" rx="14" fill="#fb923c"/>
    <text x="455" y="448" fill="#7c2d12">RULE</text>
    <text x="613" y="448" fill="#7c2d12">FACT</text>
    <text x="771" y="448" fill="#7c2d12">VAX</text>
  </g>
  <path d="M548 440h40m120 0h40" stroke="#9a3412" stroke-width="8" stroke-linecap="round"/>
  <text x="88" y="566" fill="#78716c" font-family="Arial, Helvetica, sans-serif" font-size="20">Local profile card, not a source photograph</text>
</svg>
