<svg xmlns="http://www.w3.org/2000/svg" width="960" height="640" viewBox="0 0 960 640" role="img" aria-labelledby="title desc">
  <title id="title">William McCune profile card</title>
  <desc id="desc">A local profile card for William McCune and the Otter theorem prover achievement.</desc>
  <rect width="960" height="640" fill="#111827"/>
  <rect x="36" y="36" width="888" height="568" rx="30" fill="#f8fafc"/>
  <rect x="74" y="76" width="324" height="488" rx="28" fill="#1e3a8a"/>
  <circle cx="236" cy="242" r="92" fill="#dbeafe"/>
  <path d="M144 468c12-94 71-148 92-148s80 54 92 148" fill="#bfdbfe"/>
  <path d="M164 240c14-62 46-94 84-94 41 0 74 37 81 94-44-18-102-20-165 0Z" fill="#60a5fa"/>
  <circle cx="208" cy="247" r="7" fill="#1e3a8a"/>
  <circle cx="265" cy="247" r="7" fill="#1e3a8a"/>
  <path d="M210 285c23 18 50 18 73 0" fill="none" stroke="#1e3a8a" stroke-width="8" stroke-linecap="round"/>
  <g fill="none" stroke="#93c5fd" stroke-width="5" stroke-linecap="round">
    <path d="M96 118h92m-92 38h56m-56 340h166m-166 38h122"/>
  </g>
  <text x="448" y="156" fill="#0f172a" font-family="Arial, Helvetica, sans-serif" font-size="54" font-weight="800">William McCune</text>
  <text x="448" y="214" fill="#1d4ed8" font-family="Arial, Helvetica, sans-serif" font-size="28" font-weight="700">Otter theorem prover</text>
  <text x="448" y="290" fill="#334155" font-family="Arial, Helvetica, sans-serif" font-size="25">Automated reasoning researcher</text>
  <text x="448" y="336" fill="#334155" font-family="Arial, Helvetica, sans-serif" font-size="25">Resolution, paramodulation, term indexing</text>
  <rect x="448" y="404" width="390" height="74" rx="20" fill="#dbeafe"/>
  <text x="474" y="451" fill="#1e3a8a" font-family="Arial, Helvetica, sans-serif" font-size="24" font-weight="800">PROFILE CARD</text>
  <text x="74" y="596" fill="#64748b" font-family="Arial, Helvetica, sans-serif" font-size="20">BenchCouncil AI100 local portrait-style visual</text>
</svg>
