<svg xmlns="http://www.w3.org/2000/svg" width="960" height="640" viewBox="0 0 960 640" role="img" aria-labelledby="title desc">
  <title id="title">Jianbo Shi profile card</title>
  <desc id="desc">A local profile card for Jianbo Shi and normalized cuts in spectral clustering.</desc>
  <rect width="960" height="640" fill="#020617"/>
  <rect x="52" y="52" width="856" height="536" rx="30" fill="#f8fafc"/>
  <g transform="translate(92 112)">
    <rect width="318" height="370" rx="30" fill="#eef2ff"/>
    <circle cx="160" cy="126" r="76" fill="#c7d2fe"/>
    <path d="M88 322c10-82 54-128 72-128s62 46 72 128" fill="#a5b4fc"/>
    <g stroke="#4338ca" stroke-width="6">
      <path d="M62 80 252 288M258 92 70 288M72 188h174"/>
    </g>
    <g fill="#312e81">
      <circle cx="62" cy="80" r="14"/>
      <circle cx="258" cy="92" r="14"/>
      <circle cx="72" cy="288" r="14"/>
      <circle cx="252" cy="288" r="14"/>
      <circle cx="158" cy="188" r="14"/>
    </g>
  </g>
  <text x="454" y="154" fill="#111827" font-family="Arial, Helvetica, sans-serif" font-size="56" font-weight="800">Jianbo Shi</text>
  <text x="454" y="214" fill="#4338ca" font-family="Arial, Helvetica, sans-serif" font-size="28" font-weight="700">Normalized cuts</text>
  <text x="454" y="292" fill="#334155" font-family="Arial, Helvetica, sans-serif" font-size="25">Computer vision and graph partitioning</text>
  <text x="454" y="338" fill="#334155" font-family="Arial, Helvetica, sans-serif" font-size="25">Affinity graphs, Laplacians, spectral cuts</text>
  <g fill="none" stroke-width="8" stroke-linecap="round">
    <path d="M458 432c74-72 144 72 218 0s116 32 162-24" stroke="#6366f1"/>
    <path d="M458 480c74-44 144 44 218 0s116 18 162-16" stroke="#818cf8"/>
  </g>
  <text x="92" y="566" fill="#64748b" font-family="Arial, Helvetica, sans-serif" font-size="20">Local profile card, not a source photograph</text>
</svg>
