<svg xmlns="http://www.w3.org/2000/svg" viewBox="0 0 720 420" role="img" aria-labelledby="title desc">
  <title id="title">Resolution refutation with explicit premises</title>
  <desc id="desc">Two resolution steps derive the empty clause from explicit contradictory clauses.</desc>
  <rect width="720" height="420" rx="24" fill="#0f172a"/>
  <text x="36" y="52" fill="#f59e0b" font-family="Arial" font-size="26" font-weight="800">Resolution: explicit refutation chain</text>
  <g font-family="Arial" font-size="19" text-anchor="middle">
    <rect x="52" y="92" width="170" height="56" rx="12" fill="#1f2937" stroke="#60a5fa"/><text x="137" y="127" fill="#e5e7eb">A or B</text>
    <rect x="52" y="176" width="170" height="56" rx="12" fill="#1f2937" stroke="#60a5fa"/><text x="137" y="211" fill="#e5e7eb">not B</text>
    <rect x="294" y="134" width="150" height="62" rx="12" fill="#3f2d16" stroke="#f59e0b"/><text x="369" y="172" fill="#fde68a">A</text>
    <rect x="294" y="248" width="150" height="56" rx="12" fill="#1f2937" stroke="#60a5fa"/><text x="369" y="283" fill="#e5e7eb">not A</text>
    <rect x="518" y="190" width="150" height="66" rx="14" fill="#3f1212" stroke="#ef4444"/><text x="593" y="231" fill="#fee2e2">empty clause</text>
  </g>
  <g stroke="#f8fafc" stroke-width="4" fill="none"><path d="M222 120 C254 120 260 153 294 153"/><path d="M222 204 C254 204 260 177 294 177"/><path d="M444 165 C482 165 482 207 518 207"/><path d="M444 276 C482 276 482 239 518 239"/></g>
  <text x="360" y="362" fill="#94a3b8" text-anchor="middle" font-family="Arial" font-size="15">Resolve complementary literals at each step.</text>
  <text x="360" y="386" fill="#94a3b8" text-anchor="middle" font-family="Arial" font-size="15">Contradiction is reached only after both A and not A are available.</text>
</svg>
