<svg xmlns="http://www.w3.org/2000/svg" width="900" height="520" viewBox="0 0 900 520" role="img" aria-labelledby="title desc">
  <title id="title">NP-completeness reduction map</title>
  <desc id="desc">Examples of decision problems in NP reducing to SAT in polynomial time.</desc>
  <defs><marker id="arrow" markerWidth="10" markerHeight="10" refX="8" refY="3" orient="auto"><path d="M0,0 L0,6 L9,3 z" fill="#f68900"/></marker></defs>
  <rect width="900" height="520" fill="#151515"/>
  <rect x="52" y="54" width="796" height="412" rx="18" fill="#202020" stroke="#5a3a12" stroke-width="2"/>
  <text x="80" y="104" fill="#f68900" font-family="Arial, sans-serif" font-size="26" font-weight="700">NP-COMPLETENESS</text>
  <text x="80" y="140" fill="#f4efe5" font-family="Arial, sans-serif" font-size="18">Cook-Levin: every decision problem in NP has a polynomial-time reduction to SAT.</text>
  <circle cx="250" cy="302" r="88" fill="#2b2b2b" stroke="#f68900" stroke-width="3"/>
  <text x="250" y="294" fill="#fff" text-anchor="middle" font-family="Arial" font-size="30" font-weight="700">SAT</text>
  <text x="250" y="326" fill="#d8d1c4" text-anchor="middle" font-family="Arial" font-size="14">first NP-complete problem</text>
  <g fill="#303030" stroke="#666"><rect x="572" y="174" width="178" height="54" rx="10"/><rect x="572" y="276" width="178" height="54" rx="10"/><rect x="572" y="378" width="178" height="54" rx="10"/></g>
  <g fill="#f4efe5" font-family="Arial" font-size="17" text-anchor="middle"><text x="661" y="208">Clique</text><text x="661" y="310">Hamiltonian cycle</text><text x="661" y="412">3-coloring</text></g>
  <g stroke="#f68900" stroke-width="4" fill="none" marker-end="url(#arrow)"><path d="M566 202 C450 212 376 242 328 278"/><path d="M566 304 H342"/><path d="M566 404 C452 390 374 356 326 330"/></g>
  <text x="430" y="262" fill="#f4efe5" font-family="Arial" font-size="17" font-weight="700">polynomial-time reductions</text>
  <rect x="76" y="412" width="390" height="40" rx="8" fill="#2a1f12" stroke="#6f4308"/>
  <text x="271" y="438" fill="#f4efe5" text-anchor="middle" font-family="Arial" font-size="13">Efficient SAT solver => efficient solver for every NP problem</text>
</svg>
