<svg xmlns="http://www.w3.org/2000/svg" viewBox="0 0 760 420" role="img" aria-labelledby="title desc">
  <title id="title">Nonnegative matrix factorization</title>
  <desc id="desc">A nonnegative data matrix V is approximated by the product of a nonnegative basis matrix W and coefficient matrix H.</desc>
  <rect width="760" height="420" rx="24" fill="#0f172a"/>
  <text x="38" y="56" fill="#f59e0b" font-family="Arial" font-size="27" font-weight="700">Nonnegative matrix factorization</text>
  <text x="38" y="86" fill="#cbd5e1" font-family="Arial" font-size="16">V ≈ W × H, with every matrix entry constrained to be nonnegative</text>
  <g transform="translate(66 130)"><rect width="168" height="190" rx="14" fill="#111827" stroke="#60a5fa" stroke-width="4"/><g fill="#60a5fa"><rect x="24" y="34" width="28" height="118"/><rect x="70" y="72" width="28" height="80"/><rect x="116" y="48" width="28" height="104"/></g><text x="84" y="178" text-anchor="middle" fill="#e2e8f0" font-family="Arial" font-size="18">data V</text></g>
  <text x="266" y="236" fill="#f8fafc" font-family="Arial" font-size="38">≈</text>
  <g transform="translate(326 130)"><rect width="126" height="190" rx="14" fill="#111827" stroke="#22c55e" stroke-width="4"/><g fill="#22c55e"><rect x="24" y="30" width="28" height="122"/><rect x="72" y="70" width="28" height="82"/></g><text x="63" y="178" text-anchor="middle" fill="#e2e8f0" font-family="Arial" font-size="18">basis W</text></g>
  <text x="480" y="236" fill="#f8fafc" font-family="Arial" font-size="38">×</text>
  <g transform="translate(540 164)"><rect width="158" height="122" rx="14" fill="#111827" stroke="#f97316" stroke-width="4"/><g fill="#f97316"><rect x="22" y="28" width="114" height="20"/><rect x="22" y="66" width="76" height="20"/></g><text x="79" y="112" text-anchor="middle" fill="#e2e8f0" font-family="Arial" font-size="18">weights H</text></g>
  <text x="380" y="370" fill="#94a3b8" text-anchor="middle" font-family="Arial" font-size="16">Columns of W act as additive parts; H says how strongly each part is used.</text>
</svg>
