<svg xmlns="http://www.w3.org/2000/svg" viewBox="0 0 640 390"><rect width="640" height="390" fill="#111827"/><text x="34" y="46" fill="#f59e0b" font-size="24" font-family="Arial" font-weight="800">DQN experience replay</text><g font-family="Arial" font-size="15" fill="#e5e7eb"><rect x="72" y="112" width="78" height="58" rx="12" fill="#1f2937" stroke="#60a5fa"/><text x="88" y="145">s,a,r,s'</text><rect x="170" y="134" width="78" height="58" rx="12" fill="#1f2937" stroke="#60a5fa"/><text x="186" y="167">s,a,r,s'</text><rect x="268" y="112" width="78" height="58" rx="12" fill="#1f2937" stroke="#60a5fa"/><text x="284" y="145">s,a,r,s'</text><rect x="366" y="134" width="78" height="58" rx="12" fill="#1f2937" stroke="#60a5fa"/><text x="382" y="167">s,a,r,s'</text><rect x="464" y="112" width="78" height="58" rx="12" fill="#1f2937" stroke="#60a5fa"/><text x="480" y="145">s,a,r,s'</text></g><rect x="230" y="254" width="180" height="56" rx="16" fill="#064e3b" stroke="#6ee7b7"/><text x="320" y="288" fill="#d1fae5" text-anchor="middle" font-family="Arial" font-size="17">sample minibatch</text><path d="M112 170 C150 220 240 230 270 254M306 192 C312 224 318 236 320 254M500 170 C458 220 390 232 350 254" fill="none" stroke="#f8fafc" stroke-width="4" stroke-dasharray="8 8"/></svg>