<svg xmlns="http://www.w3.org/2000/svg" width="720" height="504" viewBox="0 0 720 504" role="img" aria-labelledby="title desc">
  <title id="title">AlphaGo policy, value and tree-search pipeline</title>
  <desc id="desc">A schematic 19 by 19 Go board feeding policy and value networks whose estimates guide Monte Carlo tree search.</desc>
  <rect width="720" height="504" fill="#f7f5ef"/><rect x="28" y="28" width="664" height="448" rx="18" fill="#fffdf8" stroke="#d4c8b4" stroke-width="2"/>
  <text x="48" y="68" fill="#1f1b16" font-family="Arial" font-size="27" font-weight="800">AlphaGo: learned intuition plus search</text>
  <text x="48" y="94" fill="#6b6258" font-family="Arial" font-size="15">A schematic 19×19 position; no historical move coordinate is asserted.</text>
  <rect x="100" y="100" width="222" height="222" rx="8" fill="#e2b66f" stroke="#7a5528" stroke-width="2"/>
<path d="M112 112 H310 M112 112 V310" stroke="#7a5528" stroke-width="1"/>
<path d="M112 123 H310 M123 112 V310" stroke="#7a5528" stroke-width="1"/>
<path d="M112 134 H310 M134 112 V310" stroke="#7a5528" stroke-width="1"/>
<path d="M112 145 H310 M145 112 V310" stroke="#7a5528" stroke-width="1"/>
<path d="M112 156 H310 M156 112 V310" stroke="#7a5528" stroke-width="1"/>
<path d="M112 167 H310 M167 112 V310" stroke="#7a5528" stroke-width="1"/>
<path d="M112 178 H310 M178 112 V310" stroke="#7a5528" stroke-width="1"/>
<path d="M112 189 H310 M189 112 V310" stroke="#7a5528" stroke-width="1"/>
<path d="M112 200 H310 M200 112 V310" stroke="#7a5528" stroke-width="1"/>
<path d="M112 211 H310 M211 112 V310" stroke="#7a5528" stroke-width="1"/>
<path d="M112 222 H310 M222 112 V310" stroke="#7a5528" stroke-width="1"/>
<path d="M112 233 H310 M233 112 V310" stroke="#7a5528" stroke-width="1"/>
<path d="M112 244 H310 M244 112 V310" stroke="#7a5528" stroke-width="1"/>
<path d="M112 255 H310 M255 112 V310" stroke="#7a5528" stroke-width="1"/>
<path d="M112 266 H310 M266 112 V310" stroke="#7a5528" stroke-width="1"/>
<path d="M112 277 H310 M277 112 V310" stroke="#7a5528" stroke-width="1"/>
<path d="M112 288 H310 M288 112 V310" stroke="#7a5528" stroke-width="1"/>
<path d="M112 299 H310 M299 112 V310" stroke="#7a5528" stroke-width="1"/>
<path d="M112 310 H310 M310 112 V310" stroke="#7a5528" stroke-width="1"/>
  <circle cx="211" cy="211" r="6" fill="#111"/><circle cx="233" cy="211" r="6" fill="#f6f1e8" stroke="#111"/><circle cx="200" cy="233" r="6" fill="#111"/><circle cx="255" cy="189" r="7" fill="#f68900" stroke="#111"/>
  <text x="108" y="354" fill="#1f1b16" font-family="Arial" font-size="16" font-weight="800">Board state</text><text x="108" y="378" fill="#6b6258" font-family="Arial" font-size="14">candidate moves</text>
  <path d="M336 220 H382" stroke="#f68900" stroke-width="4"/><path d="M382 220 l-14 -9 v18 z" fill="#f68900"/>
  <g font-family="Arial"><rect x="400" y="112" width="238" height="68" rx="14" fill="#111"/><text x="420" y="140" fill="#f68900" font-size="14" font-weight="900">POLICY NETWORK</text><text x="420" y="164" fill="#fff" font-size="15">move priors</text>
  <rect x="400" y="202" width="238" height="68" rx="14" fill="#111"/><text x="420" y="230" fill="#f68900" font-size="14" font-weight="900">VALUE NETWORK</text><text x="420" y="254" fill="#fff" font-size="15">position estimate</text>
  <rect x="400" y="292" width="238" height="68" rx="14" fill="#111"/><text x="420" y="320" fill="#f68900" font-size="14" font-weight="900">MONTE CARLO TREE SEARCH</text><text x="420" y="344" fill="#fff" font-size="15">visit-guided comparison</text></g>
  <text x="48" y="430" fill="#6b6258" font-family="Arial" font-size="14">Move choice combines policy priors, value estimates and search visit counts.</text>
</svg>
