<svg xmlns="http://www.w3.org/2000/svg" viewBox="0 0 760 440" role="img" aria-labelledby="title desc">
  <title id="title">Scaled dot-product self-attention</title>
  <desc id="desc">Queries and keys produce scaled attention weights that combine value vectors.</desc>
  <rect width="760" height="440" rx="24" fill="#0f172a"/>
  <text x="38" y="56" fill="#f59e0b" font-family="Arial" font-size="28" font-weight="700">Scaled dot-product self-attention</text>
  <g font-family="Arial" font-size="18" text-anchor="middle"><rect x="76" y="112" width="132" height="64" rx="14" fill="#172554" stroke="#60a5fa" stroke-width="3"/><text x="142" y="151" fill="#bfdbfe">queries Q</text><rect x="314" y="112" width="132" height="64" rx="14" fill="#172554" stroke="#60a5fa" stroke-width="3"/><text x="380" y="151" fill="#bfdbfe">keys K</text><rect x="552" y="112" width="132" height="64" rx="14" fill="#172554" stroke="#60a5fa" stroke-width="3"/><text x="618" y="151" fill="#bfdbfe">values V</text></g>
  <path d="M142 176 C142 218 270 218 304 252 M380 176 C380 218 338 218 322 252" fill="none" stroke="#e2e8f0" stroke-width="4"/>
  <rect x="174" y="252" width="412" height="72" rx="16" fill="#111827" stroke="#f59e0b" stroke-width="3"/>
  <text x="380" y="296" fill="#fde68a" text-anchor="middle" font-family="Arial" font-size="23">Attention(Q,K,V) = softmax(QKᵀ / √dₖ) V</text>
  <path d="M618 176 C618 220 548 220 522 252" fill="none" stroke="#22c55e" stroke-width="4"/>
  <rect x="278" y="354" width="204" height="52" rx="14" fill="#064e3b" stroke="#6ee7b7" stroke-width="3"/><text x="380" y="387" fill="#d1fae5" text-anchor="middle" font-family="Arial" font-size="18">weighted value mixture</text>
  <path d="M380 324 V354" stroke="#f8fafc" stroke-width="4"/>
</svg>
