<svg xmlns="http://www.w3.org/2000/svg" viewBox="0 0 720 420" role="img" aria-label="Vision Transformer patch tokens">
  <rect width="720" height="420" fill="#0f172a"/>
  <text x="42" y="58" fill="#f59e0b" font-family="Arial" font-size="30" font-weight="700">Vision Transformer patch tokens</text>
  <rect x="66" y="104" width="176" height="176" rx="14" fill="#111827" stroke="#94a3b8" stroke-width="4"/>
  <g stroke="#334155" stroke-width="3"><path d="M110 104 V280 M154 104 V280 M198 104 V280 M66 148 H242 M66 192 H242 M66 236 H242"/></g>
  <rect x="82" y="120" width="32" height="32" fill="#34d399"/><rect x="170" y="164" width="32" height="32" fill="#60a5fa"/><rect x="126" y="208" width="32" height="32" fill="#f59e0b"/>
  <g fill="#1d4ed8" stroke="#93c5fd" stroke-width="3">
    <rect x="322" y="112" width="64" height="42" rx="10"/><rect x="322" y="170" width="64" height="42" rx="10"/><rect x="322" y="228" width="64" height="42" rx="10"/>
  </g>
  <rect x="482" y="124" width="150" height="128" rx="20" fill="#402c1b" stroke="#f59e0b" stroke-width="4"/>
  <text x="557" y="174" fill="#fde68a" font-family="Arial" font-size="25" text-anchor="middle">Transformer</text>
  <text x="557" y="210" fill="#fde68a" font-family="Arial" font-size="25" text-anchor="middle">encoder</text>
  <path d="M242 192 H322 M386 192 H482" stroke="#e5e7eb" stroke-width="6"/>
  <text x="360" y="344" fill="#94a3b8" text-anchor="middle" font-family="Arial" font-size="18">Image patches become a token sequence;</text>
  <text x="360" y="370" fill="#94a3b8" text-anchor="middle" font-family="Arial" font-size="18">attention then mixes information across regions.</text>
</svg>
